<svg width="332" height="273" viewBox="0 0 332 273" fill="none" xmlns="http://www.w3.org/2000/svg">
<rect x="56.5" y="0.5" width="245" height="152" rx="16.5" fill="url(#paint0_linear_1361_155)" stroke="#2B2B2B"/>
<path d="M79.78 32.24C78.8333 32.24 77.9667 32.0667 77.18 31.72C76.3933 31.36 75.7267 30.8733 75.18 30.26C74.6333 29.6467 74.24 28.96 74 28.2L75.7 27.5C76.06 28.46 76.5933 29.2 77.3 29.72C78.02 30.2267 78.86 30.48 79.82 30.48C80.4067 30.48 80.92 30.3867 81.36 30.2C81.8 30.0133 82.14 29.7533 82.38 29.42C82.6333 29.0733 82.76 28.6733 82.76 28.22C82.76 27.5933 82.58 27.1 82.22 26.74C81.8733 26.3667 81.36 26.0867 80.68 25.9L77.94 25.06C76.86 24.7267 76.0333 24.2 75.46 23.48C74.8867 22.76 74.6 21.9333 74.6 21C74.6 20.1867 74.7933 19.4733 75.18 18.86C75.58 18.2333 76.1267 17.7467 76.82 17.4C77.5267 17.04 78.3267 16.86 79.22 16.86C80.1133 16.86 80.92 17.02 81.64 17.34C82.3733 17.66 82.9933 18.0933 83.5 18.64C84.0067 19.1733 84.38 19.7867 84.62 20.48L82.94 21.18C82.62 20.34 82.14 19.7067 81.5 19.28C80.86 18.84 80.1067 18.62 79.24 18.62C78.7067 18.62 78.2333 18.7133 77.82 18.9C77.42 19.0733 77.1067 19.3333 76.88 19.68C76.6667 20.0133 76.56 20.4133 76.56 20.88C76.56 21.4267 76.7333 21.9133 77.08 22.34C77.4267 22.7667 77.9533 23.0933 78.66 23.32L81.16 24.06C82.3333 24.42 83.22 24.9333 83.82 25.6C84.42 26.2667 84.72 27.0933 84.72 28.08C84.72 28.8933 84.5067 29.6133 84.08 30.24C83.6667 30.8667 83.0867 31.36 82.34 31.72C81.6067 32.0667 80.7533 32.24 79.78 32.24ZM92.3297 32.24C91.2897 32.24 90.363 31.9933 89.5497 31.5C88.7364 31.0067 88.0964 30.3333 87.6297 29.48C87.163 28.6133 86.9297 27.6467 86.9297 26.58C86.9297 25.5 87.1564 24.54 87.6097 23.7C88.0764 22.86 88.703 22.2 89.4897 21.72C90.2897 21.2267 91.183 20.98 92.1697 20.98C92.9697 20.98 93.6764 21.1267 94.2897 21.42C94.9164 21.7 95.443 22.0867 95.8697 22.58C96.3097 23.06 96.643 23.6133 96.8697 24.24C97.1097 24.8533 97.2297 25.4933 97.2297 26.16C97.2297 26.3067 97.2164 26.4733 97.1897 26.66C97.1764 26.8333 97.1564 27 97.1297 27.16H88.2897V25.56H96.0497L95.1697 26.28C95.2897 25.5867 95.223 24.9667 94.9697 24.42C94.7164 23.8733 94.343 23.44 93.8497 23.12C93.3564 22.8 92.7964 22.64 92.1697 22.64C91.543 22.64 90.9697 22.8 90.4497 23.12C89.9297 23.44 89.523 23.9 89.2297 24.5C88.9497 25.0867 88.8364 25.7867 88.8897 26.6C88.8364 27.3867 88.9564 28.08 89.2497 28.68C89.5564 29.2667 89.983 29.7267 90.5297 30.06C91.0897 30.38 91.6964 30.54 92.3497 30.54C93.0697 30.54 93.6764 30.3733 94.1697 30.04C94.663 29.7067 95.063 29.28 95.3697 28.76L96.9297 29.56C96.7164 30.0533 96.383 30.5067 95.9297 30.92C95.4897 31.32 94.963 31.64 94.3497 31.88C93.7497 32.12 93.0764 32.24 92.3297 32.24ZM99.6548 32V21.22H101.475V23.2L101.275 22.92C101.528 22.3067 101.915 21.8533 102.435 21.56C102.955 21.2533 103.588 21.1 104.335 21.1H104.995V22.86H104.055C103.295 22.86 102.682 23.1 102.215 23.58C101.748 24.0467 101.515 24.7133 101.515 25.58V32H99.6548ZM109.647 32L105.427 21.22H107.507L110.887 30.34H110.167L113.567 21.22H115.647L111.407 32H109.647ZM122.076 32.24C121.036 32.24 120.109 31.9933 119.296 31.5C118.482 31.0067 117.842 30.3333 117.376 29.48C116.909 28.6133 116.676 27.6467 116.676 26.58C116.676 25.5 116.902 24.54 117.356 23.7C117.822 22.86 118.449 22.2 119.236 21.72C120.036 21.2267 120.929 20.98 121.916 20.98C122.716 20.98 123.422 21.1267 124.036 21.42C124.662 21.7 125.189 22.0867 125.616 22.58C126.056 23.06 126.389 23.6133 126.616 24.24C126.856 24.8533 126.976 25.4933 126.976 26.16C126.976 26.3067 126.962 26.4733 126.936 26.66C126.922 26.8333 126.902 27 126.876 27.16H118.036V25.56H125.796L124.916 26.28C125.036 25.5867 124.969 24.9667 124.716 24.42C124.462 23.8733 124.089 23.44 123.596 23.12C123.102 22.8 122.542 22.64 121.916 22.64C121.289 22.64 120.716 22.8 120.196 23.12C119.676 23.44 119.269 23.9 118.976 24.5C118.696 25.0867 118.582 25.7867 118.636 26.6C118.582 27.3867 118.702 28.08 118.996 28.68C119.302 29.2667 119.729 29.7267 120.276 30.06C120.836 30.38 121.442 30.54 122.096 30.54C122.816 30.54 123.422 30.3733 123.916 30.04C124.409 29.7067 124.809 29.28 125.116 28.76L126.676 29.56C126.462 30.0533 126.129 30.5067 125.676 30.92C125.236 31.32 124.709 31.64 124.096 31.88C123.496 32.12 122.822 32.24 122.076 32.24ZM129.401 32V21.22H131.221V23.2L131.021 22.92C131.274 22.3067 131.661 21.8533 132.181 21.56C132.701 21.2533 133.334 21.1 134.081 21.1H134.741V22.86H133.801C133.041 22.86 132.428 23.1 131.961 23.58C131.494 24.0467 131.261 24.7133 131.261 25.58V32H129.401Z" fill="#FAEEEE"/>
<path fill-rule="evenodd" clip-rule="evenodd" d="M270.559 18.4279C270.207 18.246 269.793 18.246 269.441 18.4279L259.441 23.5945C259.017 23.8133 258.75 24.2606 258.75 24.7498V32.4998C258.75 35.9385 259.826 38.8178 261.754 41.1748C263.662 43.5072 266.356 45.2716 269.527 46.6119C269.83 46.7402 270.17 46.7402 270.473 46.6119C273.644 45.2716 276.338 43.5072 278.246 41.1748C280.174 38.8178 281.25 35.9385 281.25 32.4998V24.7498C281.25 24.2606 280.983 23.8133 280.559 23.5945L270.559 18.4279ZM261.25 32.4998V25.5481L270 21.0273L278.75 25.5481V32.4998C278.75 35.3318 277.881 37.6194 276.337 39.5071C274.858 41.3157 272.715 42.8077 270 44.0158C267.285 42.8077 265.142 41.3157 263.663 39.5071C262.119 37.6194 261.25 35.3318 261.25 32.4998ZM275.947 29.4686C276.397 28.9285 276.339 28.1128 275.817 27.6468C275.294 27.1808 274.504 27.2409 274.053 27.7811L268.453 34.4885L265.875 31.8757C265.382 31.3762 264.591 31.3841 264.108 31.8934C263.624 32.4027 263.632 33.2205 264.125 33.7199L267.654 37.297C267.901 37.5469 268.236 37.6802 268.581 37.6653C268.926 37.6505 269.25 37.4888 269.476 37.2186L275.947 29.4686Z" fill="#404040"/>
<path d="M74.328 53V41.08H78.536C79.3253 41.08 80.0187 41.2293 80.616 41.528C81.2133 41.8267 81.6773 42.2533 82.008 42.808C82.3493 43.3627 82.52 44.0133 82.52 44.76C82.52 45.6027 82.3067 46.3173 81.88 46.904C81.4533 47.4907 80.8773 47.912 80.152 48.168L82.92 53H81.096L78.184 47.832L79.224 48.44H75.896V53H74.328ZM75.896 47H78.584C79.0533 47 79.464 46.9093 79.816 46.728C80.168 46.5467 80.44 46.2853 80.632 45.944C80.8347 45.6027 80.936 45.208 80.936 44.76C80.936 44.3013 80.8347 43.9067 80.632 43.576C80.44 43.2347 80.168 42.9733 79.816 42.792C79.464 42.6107 79.0533 42.52 78.584 42.52H75.896V47ZM88.0106 53.192C87.1786 53.192 86.4373 52.9947 85.7866 52.6C85.136 52.2053 84.624 51.6667 84.2506 50.984C83.8773 50.2907 83.6906 49.5173 83.6906 48.664C83.6906 47.8 83.872 47.032 84.2346 46.36C84.608 45.688 85.1093 45.16 85.7386 44.776C86.3786 44.3813 87.0933 44.184 87.8826 44.184C88.5226 44.184 89.088 44.3013 89.5786 44.536C90.08 44.76 90.5013 45.0693 90.8426 45.464C91.1946 45.848 91.4613 46.2907 91.6426 46.792C91.8346 47.2827 91.9306 47.7947 91.9306 48.328C91.9306 48.4453 91.92 48.5787 91.8986 48.728C91.888 48.8667 91.872 49 91.8506 49.128H84.7786V47.848H90.9866L90.2826 48.424C90.3786 47.8693 90.3253 47.3733 90.1226 46.936C89.92 46.4987 89.6213 46.152 89.2266 45.896C88.832 45.64 88.384 45.512 87.8826 45.512C87.3813 45.512 86.9226 45.64 86.5066 45.896C86.0906 46.152 85.7653 46.52 85.5306 47C85.3066 47.4693 85.216 48.0293 85.2586 48.68C85.216 49.3093 85.312 49.864 85.5466 50.344C85.792 50.8133 86.1333 51.1813 86.5706 51.448C87.0186 51.704 87.504 51.832 88.0266 51.832C88.6026 51.832 89.088 51.6987 89.4826 51.432C89.8773 51.1653 90.1973 50.824 90.4426 50.408L91.6906 51.048C91.52 51.4427 91.2533 51.8053 90.8906 52.136C90.5386 52.456 90.1173 52.712 89.6266 52.904C89.1466 53.096 88.608 53.192 88.0106 53.192ZM96.9588 53.192C96.0948 53.192 95.3428 52.9787 94.7028 52.552C94.0628 52.1253 93.6094 51.5493 93.3428 50.824L94.5268 50.248C94.7721 50.76 95.1081 51.1653 95.5348 51.464C95.9614 51.7627 96.4361 51.912 96.9588 51.912C97.4281 51.912 97.8174 51.8 98.1268 51.576C98.4361 51.352 98.5908 51.0587 98.5908 50.696C98.5908 50.44 98.5161 50.2373 98.3668 50.088C98.2281 49.928 98.0574 49.8053 97.8548 49.72C97.6521 49.624 97.4654 49.5547 97.2948 49.512L95.9988 49.144C95.2201 48.92 94.6494 48.6 94.2868 48.184C93.9348 47.768 93.7588 47.2827 93.7588 46.728C93.7588 46.216 93.8868 45.7733 94.1428 45.4C94.4094 45.016 94.7668 44.7173 95.2148 44.504C95.6734 44.2907 96.1854 44.184 96.7508 44.184C97.5081 44.184 98.1854 44.376 98.7828 44.76C99.3908 45.144 99.8228 45.6827 100.079 46.376L98.8628 46.936C98.6708 46.488 98.3828 46.136 97.9988 45.88C97.6148 45.6133 97.1828 45.48 96.7028 45.48C96.2654 45.48 95.9188 45.592 95.6628 45.816C95.4068 46.0293 95.2788 46.3013 95.2788 46.632C95.2788 46.8773 95.3428 47.08 95.4708 47.24C95.5988 47.3893 95.7534 47.5067 95.9348 47.592C96.1161 47.6667 96.2921 47.7307 96.4628 47.784L97.8708 48.2C98.5748 48.4027 99.1188 48.7173 99.5028 49.144C99.8974 49.5707 100.095 50.0827 100.095 50.68C100.095 51.16 99.9614 51.592 99.6948 51.976C99.4281 52.36 99.0601 52.6587 98.5908 52.872C98.1214 53.0853 97.5774 53.192 96.9588 53.192ZM105.099 53.192C104.48 53.192 103.92 53.048 103.419 52.76C102.928 52.472 102.544 52.072 102.267 51.56C102 51.0373 101.867 50.44 101.867 49.768V44.376H103.355V49.608C103.355 50.0347 103.44 50.408 103.611 50.728C103.792 51.048 104.037 51.2987 104.347 51.48C104.667 51.6613 105.029 51.752 105.435 51.752C105.84 51.752 106.197 51.6613 106.507 51.48C106.827 51.2987 107.072 51.0373 107.243 50.696C107.424 50.3547 107.515 49.9493 107.515 49.48V44.376H109.019V53H107.563V51.32L107.803 51.464C107.6 52.008 107.253 52.4347 106.763 52.744C106.283 53.0427 105.728 53.192 105.099 53.192ZM111.324 53V40.888H112.812V53H111.324ZM118.625 53.096C117.782 53.096 117.131 52.856 116.673 52.376C116.225 51.896 116.001 51.2187 116.001 50.344V45.8H114.433V44.376H114.753C115.137 44.376 115.441 44.2587 115.665 44.024C115.889 43.7893 116.001 43.48 116.001 43.096V42.392H117.489V44.376H119.425V45.8H117.489V50.296C117.489 50.584 117.531 50.8347 117.617 51.048C117.713 51.2613 117.867 51.432 118.081 51.56C118.294 51.6773 118.577 51.736 118.929 51.736C119.003 51.736 119.094 51.7307 119.201 51.72C119.318 51.7093 119.425 51.6987 119.521 51.688V53C119.382 53.032 119.227 53.0533 119.057 53.064C118.886 53.0853 118.742 53.096 118.625 53.096ZM124.553 53.192C123.689 53.192 122.937 52.9787 122.297 52.552C121.657 52.1253 121.203 51.5493 120.937 50.824L122.121 50.248C122.366 50.76 122.702 51.1653 123.129 51.464C123.555 51.7627 124.03 51.912 124.553 51.912C125.022 51.912 125.411 51.8 125.721 51.576C126.03 51.352 126.185 51.0587 126.185 50.696C126.185 50.44 126.11 50.2373 125.961 50.088C125.822 49.928 125.651 49.8053 125.449 49.72C125.246 49.624 125.059 49.5547 124.889 49.512L123.593 49.144C122.814 48.92 122.243 48.6 121.881 48.184C121.529 47.768 121.353 47.2827 121.353 46.728C121.353 46.216 121.481 45.7733 121.737 45.4C122.003 45.016 122.361 44.7173 122.809 44.504C123.267 44.2907 123.779 44.184 124.345 44.184C125.102 44.184 125.779 44.376 126.377 44.76C126.985 45.144 127.417 45.6827 127.673 46.376L126.457 46.936C126.265 46.488 125.977 46.136 125.593 45.88C125.209 45.6133 124.777 45.48 124.297 45.48C123.859 45.48 123.513 45.592 123.257 45.816C123.001 46.0293 122.873 46.3013 122.873 46.632C122.873 46.8773 122.937 47.08 123.065 47.24C123.193 47.3893 123.347 47.5067 123.529 47.592C123.71 47.6667 123.886 47.7307 124.057 47.784L125.465 48.2C126.169 48.4027 126.713 48.7173 127.097 49.144C127.491 49.5707 127.689 50.0827 127.689 50.68C127.689 51.16 127.555 51.592 127.289 51.976C127.022 52.36 126.654 52.6587 126.185 52.872C125.715 53.0853 125.171 53.192 124.553 53.192Z" fill="#868686"/>
<path d="M186.75 72.4585H186.772M180.125 72.4585H180.147M186.75 94.5418H186.772M180.125 94.5418H180.147M160.25 79.0835H186.75C188.808 79.0835 189.837 79.0835 190.649 78.7473C191.731 78.299 192.591 77.4392 193.039 76.357C193.375 75.5453 193.375 74.5164 193.375 72.4585C193.375 70.4006 193.375 69.3716 193.039 68.56C192.591 67.4778 191.731 66.618 190.649 66.1697C189.837 65.8335 188.808 65.8335 186.75 65.8335H160.25C158.192 65.8335 157.163 65.8335 156.351 66.1697C155.269 66.618 154.409 67.4778 153.961 68.56C153.625 69.3716 153.625 70.4006 153.625 72.4585C153.625 74.5164 153.625 75.5453 153.961 76.357C154.409 77.4392 155.269 78.299 156.351 78.7473C157.163 79.0835 158.192 79.0835 160.25 79.0835ZM160.25 101.167H186.75C188.808 101.167 189.837 101.167 190.649 100.831C191.731 100.382 192.591 99.5225 193.039 98.4404C193.375 97.6286 193.375 96.5998 193.375 94.5418C193.375 92.4839 193.375 91.455 193.039 90.6432C192.591 89.5612 191.731 88.7012 190.649 88.2529C189.837 87.9168 188.808 87.9168 186.75 87.9168H160.25C158.192 87.9168 157.163 87.9168 156.351 88.2529C155.269 88.7012 154.409 89.5612 153.961 90.6432C153.625 91.455 153.625 92.4839 153.625 94.5418C153.625 96.5998 153.625 97.6286 153.961 98.4404C154.409 99.5225 155.269 100.382 156.351 100.831C157.163 101.167 158.192 101.167 160.25 101.167Z" stroke="white" stroke-opacity="0.4" stroke-width="3" stroke-linecap="round" stroke-linejoin="round"/>
<path d="M154.019 215.279C154.019 215.279 277.26 202.855 292.978 194.395C347.068 165.283 264.865 81.1389 214.261 83.5488" stroke="url(#paint1_linear_1361_155)" stroke-width="3"/>
<rect x="0.5" y="109.5" width="245" height="152" rx="16.5" fill="url(#paint2_linear_1361_155)" stroke="#2B2B2B"/>
<path d="M35.06 141.24C33.98 141.24 33.02 141.013 32.18 140.56C31.3533 140.107 30.7067 139.487 30.24 138.7C29.7867 137.9 29.56 136.993 29.56 135.98V126.1H31.54V135.94C31.54 136.62 31.6867 137.227 31.98 137.76C32.2867 138.28 32.7 138.687 33.22 138.98C33.7533 139.273 34.3667 139.42 35.06 139.42C35.7533 139.42 36.36 139.273 36.88 138.98C37.4133 138.687 37.8267 138.28 38.12 137.76C38.4267 137.227 38.58 136.62 38.58 135.94V126.1H40.56V135.98C40.56 136.993 40.3267 137.9 39.86 138.7C39.4067 139.487 38.7667 140.107 37.94 140.56C37.1133 141.013 36.1533 141.24 35.06 141.24ZM47.4211 141.24C46.3411 141.24 45.4011 140.973 44.6011 140.44C43.8011 139.907 43.2344 139.187 42.9011 138.28L44.3811 137.56C44.6878 138.2 45.1078 138.707 45.6411 139.08C46.1744 139.453 46.7678 139.64 47.4211 139.64C48.0078 139.64 48.4944 139.5 48.8811 139.22C49.2678 138.94 49.4611 138.573 49.4611 138.12C49.4611 137.8 49.3678 137.547 49.1811 137.36C49.0078 137.16 48.7944 137.007 48.5411 136.9C48.2878 136.78 48.0544 136.693 47.8411 136.64L46.2211 136.18C45.2478 135.9 44.5344 135.5 44.0811 134.98C43.6411 134.46 43.4211 133.853 43.4211 133.16C43.4211 132.52 43.5811 131.967 43.9011 131.5C44.2344 131.02 44.6811 130.647 45.2411 130.38C45.8144 130.113 46.4544 129.98 47.1611 129.98C48.1078 129.98 48.9544 130.22 49.7011 130.7C50.4611 131.18 51.0011 131.853 51.3211 132.72L49.8011 133.42C49.5611 132.86 49.2011 132.42 48.7211 132.1C48.2411 131.767 47.7011 131.6 47.1011 131.6C46.5544 131.6 46.1211 131.74 45.8011 132.02C45.4811 132.287 45.3211 132.627 45.3211 133.04C45.3211 133.347 45.4011 133.6 45.5611 133.8C45.7211 133.987 45.9144 134.133 46.1411 134.24C46.3678 134.333 46.5878 134.413 46.8011 134.48L48.5611 135C49.4411 135.253 50.1211 135.647 50.6011 136.18C51.0944 136.713 51.3411 137.353 51.3411 138.1C51.3411 138.7 51.1744 139.24 50.8411 139.72C50.5078 140.2 50.0478 140.573 49.4611 140.84C48.8744 141.107 48.1944 141.24 47.4211 141.24ZM58.7359 141.24C57.6959 141.24 56.7693 140.993 55.9559 140.5C55.1426 140.007 54.5026 139.333 54.0359 138.48C53.5693 137.613 53.3359 136.647 53.3359 135.58C53.3359 134.5 53.5626 133.54 54.0159 132.7C54.4826 131.86 55.1093 131.2 55.8959 130.72C56.6959 130.227 57.5893 129.98 58.5759 129.98C59.3759 129.98 60.0826 130.127 60.6959 130.42C61.3226 130.7 61.8493 131.087 62.2759 131.58C62.7159 132.06 63.0493 132.613 63.2759 133.24C63.5159 133.853 63.6359 134.493 63.6359 135.16C63.6359 135.307 63.6226 135.473 63.5959 135.66C63.5826 135.833 63.5626 136 63.5359 136.16H54.6959V134.56H62.4559L61.5759 135.28C61.6959 134.587 61.6293 133.967 61.3759 133.42C61.1226 132.873 60.7493 132.44 60.2559 132.12C59.7626 131.8 59.2026 131.64 58.5759 131.64C57.9493 131.64 57.3759 131.8 56.8559 132.12C56.3359 132.44 55.9293 132.9 55.6359 133.5C55.3559 134.087 55.2426 134.787 55.2959 135.6C55.2426 136.387 55.3626 137.08 55.6559 137.68C55.9626 138.267 56.3893 138.727 56.9359 139.06C57.4959 139.38 58.1026 139.54 58.7559 139.54C59.4759 139.54 60.0826 139.373 60.5759 139.04C61.0693 138.707 61.4693 138.28 61.7759 137.76L63.3359 138.56C63.1226 139.053 62.7893 139.507 62.3359 139.92C61.8959 140.32 61.3693 140.64 60.7559 140.88C60.1559 141.12 59.4826 141.24 58.7359 141.24ZM66.0611 141V130.22H67.8811V132.2L67.6811 131.92C67.9344 131.307 68.3211 130.853 68.8411 130.56C69.3611 130.253 69.9944 130.1 70.7411 130.1H71.4011V131.86H70.4611C69.7011 131.86 69.0878 132.1 68.6211 132.58C68.1544 133.047 67.9211 133.713 67.9211 134.58V141H66.0611Z" fill="#E6E6E6"/>
<path d="M216.375 133.75H217.667C220.52 133.75 222.833 135.989 222.833 138.75V140" stroke="#404040" stroke-width="2" stroke-linecap="round"/>
<path d="M216.375 156.25H217.667C220.52 156.25 222.833 154.011 222.833 151.25V146.25" stroke="#404040" stroke-width="2" stroke-linecap="round"/>
<path d="M208.625 133.75H207.333C204.48 133.75 202.167 135.989 202.167 138.75V140" stroke="#404040" stroke-width="2" stroke-linecap="round"/>
<path d="M208.625 156.25H207.333C204.48 156.25 202.167 154.011 202.167 151.25V146.25" stroke="#404040" stroke-width="2" stroke-linecap="round"/>
<path d="M199.583 146.25H225.417" stroke="#404040" stroke-width="3" stroke-linecap="round"/>
<path d="M114.375 230.625H102.9C101.71 230.625 101.115 230.625 100.66 230.393C100.26 230.19 99.9353 229.865 99.7316 229.465C99.5 229.01 99.5 228.415 99.5 227.225V223.579C99.5 222.228 99.5 221.553 99.602 220.989C100.076 218.373 102.123 216.326 104.739 215.852C104.903 215.822 105.075 215.801 105.271 215.787C105.749 215.75 105.988 215.732 106.308 215.756C106.64 215.78 106.825 215.813 107.146 215.903C107.454 215.99 108.009 216.242 109.119 216.745C110.103 217.19 111.153 217.515 112.25 217.699M133.229 218.308C133.084 218.317 132.938 218.321 132.792 218.321C130.615 218.321 128.629 217.349 127.125 215.75C125.621 217.349 123.635 218.321 121.458 218.321C121.312 218.321 121.166 218.317 121.021 218.308C120.844 219.119 120.75 219.969 120.75 220.846C120.75 225.551 123.459 229.504 127.125 230.625C130.791 229.504 133.5 225.551 133.5 220.846C133.5 219.969 133.406 219.119 133.229 218.308ZM122.875 200.875C122.875 205.569 119.069 209.375 114.375 209.375C109.681 209.375 105.875 205.569 105.875 200.875C105.875 196.181 109.681 192.375 114.375 192.375C119.069 192.375 122.875 196.181 122.875 200.875Z" stroke="white" stroke-opacity="0.4" stroke-width="3" stroke-linecap="round" stroke-linejoin="round"/>
<path d="M32.746 160.168C32.0833 160.168 31.4767 160.047 30.926 159.804C30.3753 159.552 29.9087 159.211 29.526 158.782C29.1433 158.353 28.868 157.872 28.7 157.34L29.89 156.85C30.142 157.522 30.5153 158.04 31.01 158.404C31.514 158.759 32.102 158.936 32.774 158.936C33.1847 158.936 33.544 158.871 33.852 158.74C34.16 158.609 34.398 158.427 34.566 158.194C34.7433 157.951 34.832 157.671 34.832 157.354C34.832 156.915 34.706 156.57 34.454 156.318C34.2113 156.057 33.852 155.861 33.376 155.73L31.458 155.142C30.702 154.909 30.1233 154.54 29.722 154.036C29.3207 153.532 29.12 152.953 29.12 152.3C29.12 151.731 29.2553 151.231 29.526 150.802C29.806 150.363 30.1887 150.023 30.674 149.78C31.1687 149.528 31.7287 149.402 32.354 149.402C32.9793 149.402 33.544 149.514 34.048 149.738C34.5613 149.962 34.9953 150.265 35.35 150.648C35.7047 151.021 35.966 151.451 36.134 151.936L34.958 152.426C34.734 151.838 34.398 151.395 33.95 151.096C33.502 150.788 32.9747 150.634 32.368 150.634C31.9947 150.634 31.6633 150.699 31.374 150.83C31.094 150.951 30.8747 151.133 30.716 151.376C30.5667 151.609 30.492 151.889 30.492 152.216C30.492 152.599 30.6133 152.939 30.856 153.238C31.0987 153.537 31.4673 153.765 31.962 153.924L33.712 154.442C34.5333 154.694 35.154 155.053 35.574 155.52C35.994 155.987 36.204 156.565 36.204 157.256C36.204 157.825 36.0547 158.329 35.756 158.768C35.4667 159.207 35.0607 159.552 34.538 159.804C34.0247 160.047 33.4273 160.168 32.746 160.168ZM41.5588 160.168C40.8214 160.168 40.1634 159.995 39.5848 159.65C39.0154 159.305 38.5674 158.833 38.2408 158.236C37.9141 157.639 37.7508 156.967 37.7508 156.22C37.7508 155.464 37.9141 154.792 38.2408 154.204C38.5674 153.616 39.0154 153.149 39.5848 152.804C40.1634 152.459 40.8214 152.286 41.5588 152.286C42.0534 152.286 42.5154 152.375 42.9448 152.552C43.3741 152.729 43.7521 152.967 44.0788 153.266C44.4054 153.565 44.6434 153.915 44.7928 154.316L43.6308 154.876C43.4534 154.484 43.1828 154.167 42.8188 153.924C42.4548 153.672 42.0348 153.546 41.5588 153.546C41.1014 153.546 40.6861 153.663 40.3128 153.896C39.9488 154.129 39.6594 154.447 39.4448 154.848C39.2301 155.249 39.1228 155.711 39.1228 156.234C39.1228 156.738 39.2301 157.195 39.4448 157.606C39.6594 158.007 39.9488 158.325 40.3128 158.558C40.6861 158.791 41.1014 158.908 41.5588 158.908C42.0348 158.908 42.4548 158.787 42.8188 158.544C43.1828 158.292 43.4534 157.961 43.6308 157.55L44.7928 158.138C44.6434 158.53 44.4054 158.88 44.0788 159.188C43.7521 159.487 43.3741 159.725 42.9448 159.902C42.5154 160.079 42.0534 160.168 41.5588 160.168ZM48.6106 160.168C48.116 160.168 47.6773 160.079 47.2946 159.902C46.9213 159.715 46.6273 159.463 46.4126 159.146C46.198 158.819 46.0906 158.446 46.0906 158.026C46.0906 157.625 46.1746 157.265 46.3426 156.948C46.52 156.621 46.7906 156.346 47.1546 156.122C47.528 155.898 47.9946 155.739 48.5546 155.646L51.3546 155.184V156.276L48.8486 156.696C48.3633 156.78 48.0086 156.934 47.7846 157.158C47.57 157.382 47.4626 157.657 47.4626 157.984C47.4626 158.292 47.584 158.549 47.8266 158.754C48.0786 158.959 48.3913 159.062 48.7646 159.062C49.2406 159.062 49.6513 158.964 49.9966 158.768C50.3513 158.563 50.6266 158.287 50.8226 157.942C51.028 157.597 51.1306 157.214 51.1306 156.794V154.876C51.1306 154.465 50.9766 154.134 50.6686 153.882C50.37 153.621 49.9733 153.49 49.4786 153.49C49.0493 153.49 48.6666 153.602 48.3306 153.826C48.004 154.041 47.7613 154.33 47.6026 154.694L46.4686 154.106C46.6086 153.761 46.8326 153.453 47.1406 153.182C47.4486 152.902 47.808 152.683 48.2186 152.524C48.6293 152.365 49.0586 152.286 49.5066 152.286C50.0853 152.286 50.594 152.398 51.0326 152.622C51.4713 152.837 51.812 153.14 52.0546 153.532C52.3066 153.915 52.4326 154.363 52.4326 154.876V160H51.1586V158.572L51.3966 158.656C51.238 158.955 51.0233 159.216 50.7526 159.44C50.482 159.664 50.1646 159.841 49.8006 159.972C49.4366 160.103 49.04 160.168 48.6106 160.168ZM54.4514 160V152.454H55.7254V153.924L55.5154 153.798C55.702 153.322 56.0007 152.953 56.4114 152.692C56.8314 152.421 57.3214 152.286 57.8814 152.286C58.4227 152.286 58.9034 152.407 59.3234 152.65C59.7527 152.893 60.0887 153.229 60.3314 153.658C60.5834 154.087 60.7094 154.573 60.7094 155.114V160H59.3934V155.534C59.3934 155.114 59.3187 154.759 59.1694 154.47C59.02 154.181 58.8054 153.957 58.5254 153.798C58.2547 153.63 57.942 153.546 57.5874 153.546C57.2327 153.546 56.9154 153.63 56.6354 153.798C56.3647 153.957 56.15 154.185 55.9914 154.484C55.8327 154.773 55.7534 155.123 55.7534 155.534V160H54.4514Z" fill="#868686"/>
<defs>
<linearGradient id="paint0_linear_1361_155" x1="170.127" y1="174.342" x2="154.178" y2="2.13479" gradientUnits="userSpaceOnUse">
<stop stop-color="#0F0F0F"/>
<stop offset="1" stop-color="#1A1A1A"/>
</linearGradient>
<linearGradient id="paint1_linear_1361_155" x1="225.905" y1="63.6521" x2="170.482" y2="223.495" gradientUnits="userSpaceOnUse">
<stop stop-color="#3A63EC" stop-opacity="0.2"/>
<stop offset="0.486745" stop-color="#2E4FBA"/>
<stop offset="1" stop-color="#3A63EC" stop-opacity="0.2"/>
</linearGradient>
<linearGradient id="paint2_linear_1361_155" x1="114.127" y1="283.342" x2="98.1779" y2="111.135" gradientUnits="userSpaceOnUse">
<stop stop-color="#0F0F0F"/>
<stop offset="1" stop-color="#1A1A1A"/>
</linearGradient>
</defs>
</svg>
