<svg width="289" height="318" viewBox="0 0 289 318" fill="none" xmlns="http://www.w3.org/2000/svg">
<rect x="39.5" y="0.5" width="212" height="67" rx="8.5" fill="url(#paint0_linear_1361_104)" stroke="#2B2B2B"/>
<circle cx="65.5" cy="34.5" r="13.5" fill="#45A557" fill-opacity="0.81"/>
<path d="M88.996 32V23.06H90.172V30.92H94.096V32H88.996ZM98.2619 32.144C97.6379 32.144 97.0819 31.996 96.5939 31.7C96.1059 31.404 95.7219 31 95.4419 30.488C95.1619 29.968 95.0219 29.388 95.0219 28.748C95.0219 28.1 95.1579 27.524 95.4299 27.02C95.7099 26.516 96.0859 26.12 96.5579 25.832C97.0379 25.536 97.5739 25.388 98.1659 25.388C98.6459 25.388 99.0699 25.476 99.4379 25.652C99.8139 25.82 100.13 26.052 100.386 26.348C100.65 26.636 100.85 26.968 100.986 27.344C101.13 27.712 101.202 28.096 101.202 28.496C101.202 28.584 101.194 28.684 101.178 28.796C101.17 28.9 101.158 29 101.142 29.096H95.8379V28.136H100.494L99.9659 28.568C100.038 28.152 99.9979 27.78 99.8459 27.452C99.6939 27.124 99.4699 26.864 99.1739 26.672C98.8779 26.48 98.5419 26.384 98.1659 26.384C97.7899 26.384 97.4459 26.48 97.1339 26.672C96.8219 26.864 96.5779 27.14 96.4019 27.5C96.2339 27.852 96.1659 28.272 96.1979 28.76C96.1659 29.232 96.2379 29.648 96.4139 30.008C96.5979 30.36 96.8539 30.636 97.1819 30.836C97.5179 31.028 97.8819 31.124 98.2739 31.124C98.7059 31.124 99.0699 31.024 99.3659 30.824C99.6619 30.624 99.9019 30.368 100.086 30.056L101.022 30.536C100.894 30.832 100.694 31.104 100.422 31.352C100.158 31.592 99.8419 31.784 99.4739 31.928C99.1139 32.072 98.7099 32.144 98.2619 32.144ZM105.741 34.64C105.285 34.64 104.861 34.568 104.469 34.424C104.085 34.28 103.753 34.08 103.473 33.824C103.201 33.576 102.993 33.284 102.849 32.948L103.893 32.468C104.005 32.772 104.217 33.028 104.529 33.236C104.849 33.452 105.249 33.56 105.729 33.56C106.097 33.56 106.429 33.488 106.725 33.344C107.029 33.208 107.269 33 107.445 32.72C107.621 32.448 107.709 32.116 107.709 31.724V30.272L107.913 30.488C107.689 30.928 107.365 31.264 106.941 31.496C106.525 31.728 106.065 31.844 105.561 31.844C104.953 31.844 104.409 31.704 103.929 31.424C103.449 31.136 103.073 30.748 102.801 30.26C102.529 29.764 102.393 29.216 102.393 28.616C102.393 28.008 102.529 27.46 102.801 26.972C103.073 26.484 103.445 26.1 103.917 25.82C104.397 25.532 104.941 25.388 105.549 25.388C106.053 25.388 106.509 25.504 106.917 25.736C107.333 25.96 107.665 26.272 107.913 26.672L107.745 26.972V25.532H108.837V31.724C108.837 32.284 108.705 32.784 108.441 33.224C108.177 33.664 107.809 34.008 107.337 34.256C106.873 34.512 106.341 34.64 105.741 34.64ZM105.657 30.764C106.041 30.764 106.385 30.668 106.689 30.476C107.001 30.284 107.249 30.028 107.433 29.708C107.617 29.38 107.709 29.016 107.709 28.616C107.709 28.224 107.617 27.864 107.433 27.536C107.249 27.208 107.001 26.948 106.689 26.756C106.385 26.564 106.041 26.468 105.657 26.468C105.265 26.468 104.909 26.564 104.589 26.756C104.269 26.948 104.017 27.208 103.833 27.536C103.657 27.856 103.569 28.216 103.569 28.616C103.569 29.016 103.657 29.38 103.833 29.708C104.017 30.028 104.265 30.284 104.577 30.476C104.897 30.668 105.257 30.764 105.657 30.764ZM110.567 32V25.532H111.683V32H110.567ZM110.567 24.5V23.06H111.683V24.5H110.567ZM116.043 32.072C115.411 32.072 114.923 31.892 114.579 31.532C114.243 31.172 114.075 30.664 114.075 30.008V26.6H112.899V25.532H113.139C113.427 25.532 113.655 25.444 113.823 25.268C113.991 25.092 114.075 24.86 114.075 24.572V24.044H115.191V25.532H116.643V26.6H115.191V29.972C115.191 30.188 115.223 30.376 115.287 30.536C115.359 30.696 115.475 30.824 115.635 30.92C115.795 31.008 116.007 31.052 116.271 31.052C116.327 31.052 116.395 31.048 116.475 31.04C116.563 31.032 116.643 31.024 116.715 31.016V32C116.611 32.024 116.495 32.04 116.367 32.048C116.239 32.064 116.131 32.072 116.043 32.072ZM120.379 32V23.06H123.535C124.127 23.06 124.647 23.172 125.095 23.396C125.543 23.62 125.891 23.94 126.139 24.356C126.395 24.772 126.523 25.26 126.523 25.82C126.523 26.452 126.363 26.988 126.043 27.428C125.723 27.868 125.291 28.184 124.747 28.376L126.823 32H125.455L123.271 28.124L124.051 28.58H121.555V32H120.379ZM121.555 27.5H123.571C123.923 27.5 124.231 27.432 124.495 27.296C124.759 27.16 124.963 26.964 125.107 26.708C125.259 26.452 125.335 26.156 125.335 25.82C125.335 25.476 125.259 25.18 125.107 24.932C124.963 24.676 124.759 24.48 124.495 24.344C124.231 24.208 123.923 24.14 123.571 24.14H121.555V27.5ZM130.641 32.144C130.017 32.144 129.461 31.996 128.973 31.7C128.485 31.404 128.101 31 127.821 30.488C127.541 29.968 127.401 29.388 127.401 28.748C127.401 28.1 127.537 27.524 127.809 27.02C128.089 26.516 128.465 26.12 128.937 25.832C129.417 25.536 129.953 25.388 130.545 25.388C131.025 25.388 131.449 25.476 131.817 25.652C132.193 25.82 132.509 26.052 132.765 26.348C133.029 26.636 133.229 26.968 133.365 27.344C133.509 27.712 133.581 28.096 133.581 28.496C133.581 28.584 133.573 28.684 133.557 28.796C133.549 28.9 133.537 29 133.521 29.096H128.217V28.136H132.873L132.345 28.568C132.417 28.152 132.377 27.78 132.225 27.452C132.073 27.124 131.849 26.864 131.553 26.672C131.257 26.48 130.921 26.384 130.545 26.384C130.169 26.384 129.825 26.48 129.513 26.672C129.201 26.864 128.957 27.14 128.781 27.5C128.613 27.852 128.545 28.272 128.577 28.76C128.545 29.232 128.617 29.648 128.793 30.008C128.977 30.36 129.233 30.636 129.561 30.836C129.897 31.028 130.261 31.124 130.653 31.124C131.085 31.124 131.449 31.024 131.745 30.824C132.041 30.624 132.281 30.368 132.465 30.056L133.401 30.536C133.273 30.832 133.073 31.104 132.801 31.352C132.537 31.592 132.221 31.784 131.853 31.928C131.493 32.072 131.089 32.144 130.641 32.144ZM137.352 32.144C136.704 32.144 136.14 31.984 135.66 31.664C135.18 31.344 134.84 30.912 134.64 30.368L135.528 29.936C135.712 30.32 135.964 30.624 136.284 30.848C136.604 31.072 136.96 31.184 137.352 31.184C137.704 31.184 137.996 31.1 138.228 30.932C138.46 30.764 138.576 30.544 138.576 30.272C138.576 30.08 138.52 29.928 138.408 29.816C138.304 29.696 138.176 29.604 138.024 29.54C137.872 29.468 137.732 29.416 137.604 29.384L136.632 29.108C136.048 28.94 135.62 28.7 135.348 28.388C135.084 28.076 134.952 27.712 134.952 27.296C134.952 26.912 135.048 26.58 135.24 26.3C135.44 26.012 135.708 25.788 136.044 25.628C136.388 25.468 136.772 25.388 137.196 25.388C137.764 25.388 138.272 25.532 138.72 25.82C139.176 26.108 139.5 26.512 139.692 27.032L138.78 27.452C138.636 27.116 138.42 26.852 138.132 26.66C137.844 26.46 137.52 26.36 137.16 26.36C136.832 26.36 136.572 26.444 136.38 26.612C136.188 26.772 136.092 26.976 136.092 27.224C136.092 27.408 136.14 27.56 136.236 27.68C136.332 27.792 136.448 27.88 136.584 27.944C136.72 28 136.852 28.048 136.98 28.088L138.036 28.4C138.564 28.552 138.972 28.788 139.26 29.108C139.556 29.428 139.704 29.812 139.704 30.26C139.704 30.62 139.604 30.944 139.404 31.232C139.204 31.52 138.928 31.744 138.576 31.904C138.224 32.064 137.816 32.144 137.352 32.144ZM143.457 32.144C142.993 32.144 142.573 32.036 142.197 31.82C141.829 31.604 141.541 31.304 141.333 30.92C141.133 30.528 141.033 30.08 141.033 29.576V25.532H142.149V29.456C142.149 29.776 142.213 30.056 142.341 30.296C142.477 30.536 142.661 30.724 142.893 30.86C143.133 30.996 143.405 31.064 143.709 31.064C144.013 31.064 144.281 30.996 144.513 30.86C144.753 30.724 144.937 30.528 145.065 30.272C145.201 30.016 145.269 29.712 145.269 29.36V25.532H146.397V32H145.305V30.74L145.485 30.848C145.333 31.256 145.073 31.576 144.705 31.808C144.345 32.032 143.929 32.144 143.457 32.144ZM148.126 32V22.916H149.242V32H148.126ZM153.601 32.072C152.969 32.072 152.481 31.892 152.137 31.532C151.801 31.172 151.633 30.664 151.633 30.008V26.6H150.457V25.532H150.697C150.985 25.532 151.213 25.444 151.381 25.268C151.549 25.092 151.633 24.86 151.633 24.572V24.044H152.749V25.532H154.201V26.6H152.749V29.972C152.749 30.188 152.781 30.376 152.845 30.536C152.917 30.696 153.033 30.824 153.193 30.92C153.353 31.008 153.565 31.052 153.829 31.052C153.885 31.052 153.953 31.048 154.033 31.04C154.121 31.032 154.201 31.024 154.273 31.016V32C154.169 32.024 154.053 32.04 153.925 32.048C153.797 32.064 153.689 32.072 153.601 32.072Z" fill="white"/>
<g clip-path="url(#clip0_1361_104)">
<path d="M220.5 24.375C219.572 24.375 218.812 25.1344 218.812 26.0625C218.812 26.9906 219.572 27.75 220.5 27.75C221.428 27.75 222.188 26.9906 222.188 26.0625C222.188 25.1344 221.428 24.375 220.5 24.375ZM220.5 41.25C219.572 41.25 218.812 42.0094 218.812 42.9375C218.812 43.8656 219.572 44.625 220.5 44.625C221.428 44.625 222.188 43.8656 222.188 42.9375C222.188 42.0094 221.428 41.25 220.5 41.25ZM220.5 32.8125C219.572 32.8125 218.812 33.5719 218.812 34.5C218.812 35.4281 219.572 36.1875 220.5 36.1875C221.428 36.1875 222.188 35.4281 222.188 34.5C222.188 33.5719 221.428 32.8125 220.5 32.8125Z" fill="#616161"/>
</g>
<path d="M88.88 46V38.55H89.68V45.25H92.98V46H88.88ZM96.5925 46.12C96.0858 46.12 95.6258 46 95.2125 45.76C94.7992 45.5133 94.4692 45.18 94.2225 44.76C93.9825 44.3333 93.8625 43.85 93.8625 43.31C93.8625 42.7767 93.9825 42.3 94.2225 41.88C94.4625 41.46 94.7858 41.13 95.1925 40.89C95.6058 40.6433 96.0725 40.52 96.5925 40.52C97.1125 40.52 97.5758 40.64 97.9825 40.88C98.3958 41.12 98.7192 41.45 98.9525 41.87C99.1925 42.29 99.3125 42.77 99.3125 43.31C99.3125 43.8567 99.1892 44.3433 98.9425 44.77C98.6958 45.19 98.3658 45.52 97.9525 45.76C97.5458 46 97.0925 46.12 96.5925 46.12ZM96.5925 45.37C96.9525 45.37 97.2758 45.28 97.5625 45.1C97.8558 44.92 98.0858 44.6733 98.2525 44.36C98.4258 44.0467 98.5125 43.6967 98.5125 43.31C98.5125 42.9233 98.4258 42.5767 98.2525 42.27C98.0858 41.9633 97.8558 41.72 97.5625 41.54C97.2758 41.36 96.9525 41.27 96.5925 41.27C96.2325 41.27 95.9058 41.36 95.6125 41.54C95.3258 41.72 95.0958 41.9633 94.9225 42.27C94.7492 42.5767 94.6625 42.9233 94.6625 43.31C94.6625 43.6967 94.7492 44.0467 94.9225 44.36C95.0958 44.6733 95.3258 44.92 95.6125 45.1C95.9058 45.28 96.2325 45.37 96.5925 45.37ZM103.145 46.12C102.639 46.12 102.179 46 101.765 45.76C101.352 45.5133 101.022 45.18 100.775 44.76C100.535 44.3333 100.415 43.85 100.415 43.31C100.415 42.7767 100.535 42.3 100.775 41.88C101.015 41.46 101.339 41.13 101.745 40.89C102.159 40.6433 102.625 40.52 103.145 40.52C103.665 40.52 104.129 40.64 104.535 40.88C104.949 41.12 105.272 41.45 105.505 41.87C105.745 42.29 105.865 42.77 105.865 43.31C105.865 43.8567 105.742 44.3433 105.495 44.77C105.249 45.19 104.919 45.52 104.505 45.76C104.099 46 103.645 46.12 103.145 46.12ZM103.145 45.37C103.505 45.37 103.829 45.28 104.115 45.1C104.409 44.92 104.639 44.6733 104.805 44.36C104.979 44.0467 105.065 43.6967 105.065 43.31C105.065 42.9233 104.979 42.5767 104.805 42.27C104.639 41.9633 104.409 41.72 104.115 41.54C103.829 41.36 103.505 41.27 103.145 41.27C102.785 41.27 102.459 41.36 102.165 41.54C101.879 41.72 101.649 41.9633 101.475 42.27C101.302 42.5767 101.215 42.9233 101.215 43.31C101.215 43.6967 101.302 44.0467 101.475 44.36C101.649 44.6733 101.879 44.92 102.165 45.1C102.459 45.28 102.785 45.37 103.145 45.37ZM107.188 46V38.43H107.938V43.73L107.618 43.68L110.628 40.64H111.598L109.498 42.79L111.788 46H110.888L108.738 43.03L109.218 43.07L107.688 44.65L107.938 44.03V46H107.188ZM114.476 46V38.55H117.036C117.522 38.55 117.949 38.6467 118.316 38.84C118.682 39.0267 118.966 39.2933 119.166 39.64C119.372 39.98 119.476 40.3767 119.476 40.83C119.476 41.3567 119.336 41.8067 119.056 42.18C118.782 42.5533 118.409 42.8167 117.936 42.97L119.676 46H118.736L116.916 42.79L117.456 43.1H115.276V46H114.476ZM115.276 42.35H117.076C117.396 42.35 117.676 42.29 117.916 42.17C118.156 42.0433 118.342 41.8667 118.476 41.64C118.609 41.4067 118.676 41.1333 118.676 40.82C118.676 40.5067 118.609 40.2367 118.476 40.01C118.342 39.7833 118.156 39.61 117.916 39.49C117.676 39.3633 117.396 39.3 117.076 39.3H115.276V42.35ZM122.909 46.12C122.409 46.12 121.956 46 121.549 45.76C121.149 45.5133 120.833 45.1767 120.599 44.75C120.366 44.3233 120.249 43.84 120.249 43.3C120.249 42.76 120.363 42.2833 120.589 41.87C120.816 41.45 121.123 41.12 121.509 40.88C121.903 40.64 122.343 40.52 122.829 40.52C123.216 40.52 123.559 40.5933 123.859 40.74C124.166 40.88 124.426 41.0733 124.639 41.32C124.853 41.56 125.016 41.8333 125.129 42.14C125.243 42.44 125.299 42.75 125.299 43.07C125.299 43.1367 125.296 43.2133 125.289 43.3C125.283 43.38 125.273 43.4633 125.259 43.55H120.729V42.85H124.829L124.469 43.15C124.529 42.7833 124.486 42.4567 124.339 42.17C124.199 41.8767 123.996 41.6467 123.729 41.48C123.463 41.3067 123.163 41.22 122.829 41.22C122.496 41.22 122.186 41.3067 121.899 41.48C121.619 41.6533 121.399 41.8967 121.239 42.21C121.079 42.5167 121.016 42.8833 121.049 43.31C121.016 43.7367 121.083 44.11 121.249 44.43C121.423 44.7433 121.656 44.9867 121.949 45.16C122.249 45.3333 122.569 45.42 122.909 45.42C123.303 45.42 123.633 45.3267 123.899 45.14C124.166 44.9533 124.383 44.72 124.549 44.44L125.189 44.78C125.083 45.02 124.919 45.2433 124.699 45.45C124.479 45.65 124.216 45.8133 123.909 45.94C123.609 46.06 123.276 46.12 122.909 46.12ZM128.482 46.12C127.968 46.12 127.518 45.99 127.132 45.73C126.745 45.47 126.465 45.1167 126.292 44.67L126.922 44.37C127.075 44.6967 127.288 44.9567 127.562 45.15C127.842 45.3433 128.148 45.44 128.482 45.44C128.802 45.44 129.072 45.3633 129.292 45.21C129.512 45.05 129.622 44.8433 129.622 44.59C129.622 44.4033 129.568 44.2567 129.462 44.15C129.355 44.0367 129.232 43.95 129.092 43.89C128.952 43.83 128.828 43.7867 128.722 43.76L127.952 43.54C127.458 43.4 127.102 43.2033 126.882 42.95C126.662 42.6967 126.552 42.4033 126.552 42.07C126.552 41.7567 126.632 41.4833 126.792 41.25C126.952 41.0167 127.168 40.8367 127.442 40.71C127.715 40.5833 128.018 40.52 128.352 40.52C128.805 40.52 129.215 40.64 129.582 40.88C129.955 41.1133 130.218 41.44 130.372 41.86L129.732 42.16C129.598 41.86 129.405 41.6267 129.152 41.46C128.905 41.2867 128.628 41.2 128.322 41.2C128.022 41.2 127.782 41.2767 127.602 41.43C127.422 41.5833 127.332 41.7767 127.332 42.01C127.332 42.19 127.378 42.3333 127.472 42.44C127.565 42.5467 127.672 42.6267 127.792 42.68C127.918 42.7333 128.028 42.7733 128.122 42.8L129.012 43.06C129.445 43.1867 129.782 43.3833 130.022 43.65C130.268 43.9167 130.392 44.23 130.392 44.59C130.392 44.8833 130.308 45.1467 130.142 45.38C129.982 45.6133 129.758 45.7967 129.472 45.93C129.185 46.0567 128.855 46.12 128.482 46.12ZM133.609 46.12C133.236 46.12 132.896 46.0333 132.589 45.86C132.283 45.68 132.039 45.4333 131.859 45.12C131.686 44.8 131.599 44.4333 131.599 44.02V40.64H132.349V43.93C132.349 44.2167 132.406 44.47 132.519 44.69C132.639 44.9033 132.803 45.07 133.009 45.19C133.223 45.31 133.466 45.37 133.739 45.37C134.013 45.37 134.256 45.31 134.469 45.19C134.683 45.0633 134.849 44.8867 134.969 44.66C135.089 44.4267 135.149 44.15 135.149 43.83V40.64H135.899V46H135.149V44.96L135.319 45C135.193 45.3467 134.976 45.62 134.669 45.82C134.363 46.02 134.009 46.12 133.609 46.12ZM137.442 46V38.43H138.192V46H137.442ZM141.777 46.06C141.297 46.06 140.927 45.92 140.667 45.64C140.407 45.36 140.277 44.96 140.277 44.44V41.39H139.287V40.64H139.537C139.764 40.64 139.944 40.5667 140.077 40.42C140.21 40.2667 140.277 40.0767 140.277 39.85V39.4H141.027V40.64H142.207V41.39H141.027V44.44C141.027 44.62 141.054 44.78 141.107 44.92C141.16 45.0533 141.25 45.16 141.377 45.24C141.51 45.32 141.687 45.36 141.907 45.36C141.96 45.36 142.024 45.3567 142.097 45.35C142.17 45.3433 142.234 45.3367 142.287 45.33V46C142.207 46.02 142.117 46.0333 142.017 46.04C141.917 46.0533 141.837 46.06 141.777 46.06ZM145.464 46.12C144.951 46.12 144.501 45.99 144.114 45.73C143.727 45.47 143.447 45.1167 143.274 44.67L143.904 44.37C144.057 44.6967 144.271 44.9567 144.544 45.15C144.824 45.3433 145.131 45.44 145.464 45.44C145.784 45.44 146.054 45.3633 146.274 45.21C146.494 45.05 146.604 44.8433 146.604 44.59C146.604 44.4033 146.551 44.2567 146.444 44.15C146.337 44.0367 146.214 43.95 146.074 43.89C145.934 43.83 145.811 43.7867 145.704 43.76L144.934 43.54C144.441 43.4 144.084 43.2033 143.864 42.95C143.644 42.6967 143.534 42.4033 143.534 42.07C143.534 41.7567 143.614 41.4833 143.774 41.25C143.934 41.0167 144.151 40.8367 144.424 40.71C144.697 40.5833 145.001 40.52 145.334 40.52C145.787 40.52 146.197 40.64 146.564 40.88C146.937 41.1133 147.201 41.44 147.354 41.86L146.714 42.16C146.581 41.86 146.387 41.6267 146.134 41.46C145.887 41.2867 145.611 41.2 145.304 41.2C145.004 41.2 144.764 41.2767 144.584 41.43C144.404 41.5833 144.314 41.7767 144.314 42.01C144.314 42.19 144.361 42.3333 144.454 42.44C144.547 42.5467 144.654 42.6267 144.774 42.68C144.901 42.7333 145.011 42.7733 145.104 42.8L145.994 43.06C146.427 43.1867 146.764 43.3833 147.004 43.65C147.251 43.9167 147.374 44.23 147.374 44.59C147.374 44.8833 147.291 45.1467 147.124 45.38C146.964 45.6133 146.741 45.7967 146.454 45.93C146.167 46.0567 145.837 46.12 145.464 46.12Z" fill="#B5B5B5"/>
<rect x="144" y="67" width="3" height="44" fill="#2B2B2B"/>
<rect x="0.5" y="113.5" width="288" height="91" rx="14.5" fill="url(#paint1_linear_1361_104)" stroke="#2B2B2B"/>
<circle cx="37" cy="159" r="21" fill="#FFB224" fill-opacity="0.81"/>
<path d="M69.52 155L66.176 143.08H67.824L70.624 153.576H70.24L73.152 143.08H74.8L77.696 153.576H77.296L80.112 143.08H81.76L78.416 155H76.672L73.76 144.552H74.176L71.264 155H69.52ZM84.9769 155.192C84.4115 155.192 83.9102 155.091 83.4729 154.888C83.0462 154.675 82.7102 154.387 82.4649 154.024C82.2195 153.651 82.0969 153.224 82.0969 152.744C82.0969 152.285 82.1929 151.875 82.3849 151.512C82.5875 151.139 82.8969 150.824 83.3129 150.568C83.7395 150.312 84.2729 150.131 84.9129 150.024L88.1129 149.496V150.744L85.2489 151.224C84.6942 151.32 84.2889 151.496 84.0329 151.752C83.7875 152.008 83.6649 152.323 83.6649 152.696C83.6649 153.048 83.8035 153.341 84.0809 153.576C84.3689 153.811 84.7262 153.928 85.1529 153.928C85.6969 153.928 86.1662 153.816 86.5609 153.592C86.9662 153.357 87.2809 153.043 87.5049 152.648C87.7395 152.253 87.8569 151.816 87.8569 151.336V149.144C87.8569 148.675 87.6809 148.296 87.3289 148.008C86.9875 147.709 86.5342 147.56 85.9689 147.56C85.4782 147.56 85.0409 147.688 84.6569 147.944C84.2835 148.189 84.0062 148.52 83.8249 148.936L82.5289 148.264C82.6889 147.869 82.9449 147.517 83.2969 147.208C83.6489 146.888 84.0595 146.637 84.5289 146.456C84.9982 146.275 85.4889 146.184 86.0009 146.184C86.6622 146.184 87.2435 146.312 87.7449 146.568C88.2462 146.813 88.6355 147.16 88.9129 147.608C89.2009 148.045 89.3449 148.557 89.3449 149.144V155H87.8889V153.368L88.1609 153.464C87.9795 153.805 87.7342 154.104 87.4249 154.36C87.1155 154.616 86.7529 154.819 86.3369 154.968C85.9209 155.117 85.4675 155.192 84.9769 155.192ZM91.652 155V146.376H93.108V147.96L92.948 147.736C93.1507 147.245 93.46 146.883 93.876 146.648C94.292 146.403 94.7987 146.28 95.396 146.28H95.924V147.688H95.172C94.564 147.688 94.0733 147.88 93.7 148.264C93.3267 148.637 93.14 149.171 93.14 149.864V155H91.652ZM97.2458 155V146.376H98.7018V148.056L98.4618 147.912C98.6751 147.368 99.0164 146.947 99.4858 146.648C99.9658 146.339 100.526 146.184 101.166 146.184C101.784 146.184 102.334 146.323 102.814 146.6C103.304 146.877 103.688 147.261 103.966 147.752C104.254 148.243 104.398 148.797 104.398 149.416V155H102.894V149.896C102.894 149.416 102.808 149.011 102.638 148.68C102.467 148.349 102.222 148.093 101.902 147.912C101.592 147.72 101.235 147.624 100.83 147.624C100.424 147.624 100.062 147.72 99.7418 147.912C99.4324 148.093 99.1871 148.355 99.0058 148.696C98.8244 149.027 98.7338 149.427 98.7338 149.896V155H97.2458ZM106.527 155V146.376H108.015V155H106.527ZM106.527 145V143.08H108.015V145H106.527ZM110.324 155V146.376H111.78V148.056L111.54 147.912C111.753 147.368 112.095 146.947 112.564 146.648C113.044 146.339 113.604 146.184 114.244 146.184C114.863 146.184 115.412 146.323 115.892 146.6C116.383 146.877 116.767 147.261 117.044 147.752C117.332 148.243 117.476 148.797 117.476 149.416V155H115.972V149.896C115.972 149.416 115.887 149.011 115.716 148.68C115.545 148.349 115.3 148.093 114.98 147.912C114.671 147.72 114.313 147.624 113.908 147.624C113.503 147.624 113.14 147.72 112.82 147.912C112.511 148.093 112.265 148.355 112.084 148.696C111.903 149.027 111.812 149.427 111.812 149.896V155H110.324ZM123.717 158.52C123.109 158.52 122.544 158.424 122.021 158.232C121.509 158.04 121.066 157.773 120.693 157.432C120.33 157.101 120.053 156.712 119.861 156.264L121.253 155.624C121.402 156.029 121.685 156.371 122.101 156.648C122.528 156.936 123.061 157.08 123.701 157.08C124.192 157.08 124.634 156.984 125.029 156.792C125.434 156.611 125.754 156.333 125.989 155.96C126.224 155.597 126.341 155.155 126.341 154.632V152.696L126.613 152.984C126.314 153.571 125.882 154.019 125.317 154.328C124.762 154.637 124.149 154.792 123.477 154.792C122.666 154.792 121.941 154.605 121.301 154.232C120.661 153.848 120.16 153.331 119.797 152.68C119.434 152.019 119.253 151.288 119.253 150.488C119.253 149.677 119.434 148.947 119.797 148.296C120.16 147.645 120.656 147.133 121.285 146.76C121.925 146.376 122.65 146.184 123.461 146.184C124.133 146.184 124.741 146.339 125.285 146.648C125.84 146.947 126.282 147.363 126.613 147.896L126.389 148.296V146.376H127.845V154.632C127.845 155.379 127.669 156.045 127.317 156.632C126.965 157.219 126.474 157.677 125.845 158.008C125.226 158.349 124.517 158.52 123.717 158.52ZM123.605 153.352C124.117 153.352 124.576 153.224 124.981 152.968C125.397 152.712 125.728 152.371 125.973 151.944C126.218 151.507 126.341 151.021 126.341 150.488C126.341 149.965 126.218 149.485 125.973 149.048C125.728 148.611 125.397 148.264 124.981 148.008C124.576 147.752 124.117 147.624 123.605 147.624C123.082 147.624 122.608 147.752 122.181 148.008C121.754 148.264 121.418 148.611 121.173 149.048C120.938 149.475 120.821 149.955 120.821 150.488C120.821 151.021 120.938 151.507 121.173 151.944C121.418 152.371 121.749 152.712 122.165 152.968C122.592 153.224 123.072 153.352 123.605 153.352ZM133.094 155V143.08H137.302C138.091 143.08 138.784 143.229 139.382 143.528C139.979 143.827 140.443 144.253 140.774 144.808C141.115 145.363 141.286 146.013 141.286 146.76C141.286 147.603 141.072 148.317 140.646 148.904C140.219 149.491 139.643 149.912 138.918 150.168L141.686 155H139.862L136.95 149.832L137.99 150.44H134.662V155H133.094ZM134.662 149H137.35C137.819 149 138.23 148.909 138.582 148.728C138.934 148.547 139.206 148.285 139.398 147.944C139.6 147.603 139.702 147.208 139.702 146.76C139.702 146.301 139.6 145.907 139.398 145.576C139.206 145.235 138.934 144.973 138.582 144.792C138.23 144.611 137.819 144.52 137.35 144.52H134.662V149ZM146.776 155.192C145.944 155.192 145.203 154.995 144.552 154.6C143.902 154.205 143.39 153.667 143.016 152.984C142.643 152.291 142.456 151.517 142.456 150.664C142.456 149.8 142.638 149.032 143 148.36C143.374 147.688 143.875 147.16 144.504 146.776C145.144 146.381 145.859 146.184 146.648 146.184C147.288 146.184 147.854 146.301 148.344 146.536C148.846 146.76 149.267 147.069 149.608 147.464C149.96 147.848 150.227 148.291 150.408 148.792C150.6 149.283 150.696 149.795 150.696 150.328C150.696 150.445 150.686 150.579 150.664 150.728C150.654 150.867 150.638 151 150.616 151.128H143.544V149.848H149.752L149.048 150.424C149.144 149.869 149.091 149.373 148.888 148.936C148.686 148.499 148.387 148.152 147.992 147.896C147.598 147.64 147.15 147.512 146.648 147.512C146.147 147.512 145.688 147.64 145.272 147.896C144.856 148.152 144.531 148.52 144.296 149C144.072 149.469 143.982 150.029 144.024 150.68C143.982 151.309 144.078 151.864 144.312 152.344C144.558 152.813 144.899 153.181 145.336 153.448C145.784 153.704 146.27 153.832 146.792 153.832C147.368 153.832 147.854 153.699 148.248 153.432C148.643 153.165 148.963 152.824 149.208 152.408L150.456 153.048C150.286 153.443 150.019 153.805 149.656 154.136C149.304 154.456 148.883 154.712 148.392 154.904C147.912 155.096 147.374 155.192 146.776 155.192ZM155.724 155.192C154.86 155.192 154.108 154.979 153.468 154.552C152.828 154.125 152.375 153.549 152.108 152.824L153.292 152.248C153.538 152.76 153.874 153.165 154.3 153.464C154.727 153.763 155.202 153.912 155.724 153.912C156.194 153.912 156.583 153.8 156.892 153.576C157.202 153.352 157.356 153.059 157.356 152.696C157.356 152.44 157.282 152.237 157.132 152.088C156.994 151.928 156.823 151.805 156.62 151.72C156.418 151.624 156.231 151.555 156.06 151.512L154.764 151.144C153.986 150.92 153.415 150.6 153.052 150.184C152.7 149.768 152.524 149.283 152.524 148.728C152.524 148.216 152.652 147.773 152.908 147.4C153.175 147.016 153.532 146.717 153.98 146.504C154.439 146.291 154.951 146.184 155.516 146.184C156.274 146.184 156.951 146.376 157.548 146.76C158.156 147.144 158.588 147.683 158.844 148.376L157.628 148.936C157.436 148.488 157.148 148.136 156.764 147.88C156.38 147.613 155.948 147.48 155.468 147.48C155.031 147.48 154.684 147.592 154.428 147.816C154.172 148.029 154.044 148.301 154.044 148.632C154.044 148.877 154.108 149.08 154.236 149.24C154.364 149.389 154.519 149.507 154.7 149.592C154.882 149.667 155.058 149.731 155.228 149.784L156.636 150.2C157.34 150.403 157.884 150.717 158.268 151.144C158.663 151.571 158.86 152.083 158.86 152.68C158.86 153.16 158.727 153.592 158.46 153.976C158.194 154.36 157.826 154.659 157.356 154.872C156.887 155.085 156.343 155.192 155.724 155.192ZM163.864 155.192C163.246 155.192 162.686 155.048 162.184 154.76C161.694 154.472 161.31 154.072 161.032 153.56C160.766 153.037 160.632 152.44 160.632 151.768V146.376H162.12V151.608C162.12 152.035 162.206 152.408 162.376 152.728C162.558 153.048 162.803 153.299 163.112 153.48C163.432 153.661 163.795 153.752 164.2 153.752C164.606 153.752 164.963 153.661 165.272 153.48C165.592 153.299 165.838 153.037 166.008 152.696C166.19 152.355 166.28 151.949 166.28 151.48V146.376H167.784V155H166.328V153.32L166.568 153.464C166.366 154.008 166.019 154.435 165.528 154.744C165.048 155.043 164.494 155.192 163.864 155.192ZM170.09 155V142.888H171.578V155H170.09ZM177.39 155.096C176.548 155.096 175.897 154.856 175.438 154.376C174.99 153.896 174.766 153.219 174.766 152.344V147.8H173.198V146.376H173.518C173.902 146.376 174.206 146.259 174.43 146.024C174.654 145.789 174.766 145.48 174.766 145.096V144.392H176.254V146.376H178.19V147.8H176.254V152.296C176.254 152.584 176.297 152.835 176.382 153.048C176.478 153.261 176.633 153.432 176.846 153.56C177.06 153.677 177.342 153.736 177.694 153.736C177.769 153.736 177.86 153.731 177.966 153.72C178.084 153.709 178.19 153.699 178.286 153.688V155C178.148 155.032 177.993 155.053 177.822 155.064C177.652 155.085 177.508 155.096 177.39 155.096Z" fill="white"/>
<path d="M67.32 177V165.825H68.52V175.875H73.47V177H67.32ZM78.8888 177.18C78.1288 177.18 77.4388 177 76.8188 176.64C76.1988 176.27 75.7038 175.77 75.3338 175.14C74.9738 174.5 74.7938 173.775 74.7938 172.965C74.7938 172.165 74.9738 171.45 75.3338 170.82C75.6938 170.19 76.1788 169.695 76.7888 169.335C77.4088 168.965 78.1088 168.78 78.8888 168.78C79.6688 168.78 80.3638 168.96 80.9738 169.32C81.5938 169.68 82.0788 170.175 82.4288 170.805C82.7888 171.435 82.9688 172.155 82.9688 172.965C82.9688 173.785 82.7838 174.515 82.4138 175.155C82.0438 175.785 81.5488 176.28 80.9288 176.64C80.3188 177 79.6388 177.18 78.8888 177.18ZM78.8888 176.055C79.4288 176.055 79.9138 175.92 80.3438 175.65C80.7838 175.38 81.1288 175.01 81.3788 174.54C81.6388 174.07 81.7688 173.545 81.7688 172.965C81.7688 172.385 81.6388 171.865 81.3788 171.405C81.1288 170.945 80.7838 170.58 80.3438 170.31C79.9138 170.04 79.4288 169.905 78.8888 169.905C78.3488 169.905 77.8588 170.04 77.4188 170.31C76.9888 170.58 76.6438 170.945 76.3838 171.405C76.1238 171.865 75.9938 172.385 75.9938 172.965C75.9938 173.545 76.1238 174.07 76.3838 174.54C76.6438 175.01 76.9888 175.38 77.4188 175.65C77.8588 175.92 78.3488 176.055 78.8888 176.055ZM88.7179 177.18C87.9579 177.18 87.2679 177 86.6479 176.64C86.0279 176.27 85.5329 175.77 85.1629 175.14C84.8029 174.5 84.6229 173.775 84.6229 172.965C84.6229 172.165 84.8029 171.45 85.1629 170.82C85.5229 170.19 86.0079 169.695 86.6179 169.335C87.2379 168.965 87.9379 168.78 88.7179 168.78C89.4979 168.78 90.1929 168.96 90.8029 169.32C91.4229 169.68 91.9079 170.175 92.2579 170.805C92.6179 171.435 92.7979 172.155 92.7979 172.965C92.7979 173.785 92.6129 174.515 92.2429 175.155C91.8729 175.785 91.3779 176.28 90.7579 176.64C90.1479 177 89.4679 177.18 88.7179 177.18ZM88.7179 176.055C89.2579 176.055 89.7429 175.92 90.1729 175.65C90.6129 175.38 90.9579 175.01 91.2079 174.54C91.4679 174.07 91.5979 173.545 91.5979 172.965C91.5979 172.385 91.4679 171.865 91.2079 171.405C90.9579 170.945 90.6129 170.58 90.1729 170.31C89.7429 170.04 89.2579 169.905 88.7179 169.905C88.1779 169.905 87.6879 170.04 87.2479 170.31C86.8179 170.58 86.4729 170.945 86.2129 171.405C85.9529 171.865 85.8229 172.385 85.8229 172.965C85.8229 173.545 85.9529 174.07 86.2129 174.54C86.4729 175.01 86.8179 175.38 87.2479 175.65C87.6879 175.92 88.1779 176.055 88.7179 176.055ZM94.782 177V165.645H95.907V173.595L95.427 173.52L99.942 168.96H101.397L98.247 172.185L101.682 177H100.332L97.107 172.545L97.827 172.605L95.532 174.975L95.907 174.045V177H94.782ZM105.714 177V165.825H109.554C110.284 165.825 110.924 165.97 111.474 166.26C112.024 166.54 112.449 166.94 112.749 167.46C113.059 167.97 113.214 168.565 113.214 169.245C113.214 170.035 113.004 170.71 112.584 171.27C112.174 171.83 111.614 172.225 110.904 172.455L113.514 177H112.104L109.374 172.185L110.184 172.65H106.914V177H105.714ZM106.914 171.525H109.614C110.094 171.525 110.514 171.435 110.874 171.255C111.234 171.065 111.514 170.8 111.714 170.46C111.914 170.11 112.014 169.7 112.014 169.23C112.014 168.76 111.914 168.355 111.714 168.015C111.514 167.675 111.234 167.415 110.874 167.235C110.514 167.045 110.094 166.95 109.614 166.95H106.914V171.525ZM118.364 177.18C117.614 177.18 116.934 177 116.324 176.64C115.724 176.27 115.249 175.765 114.899 175.125C114.549 174.485 114.374 173.76 114.374 172.95C114.374 172.14 114.544 171.425 114.884 170.805C115.224 170.175 115.684 169.68 116.264 169.32C116.854 168.96 117.514 168.78 118.244 168.78C118.824 168.78 119.339 168.89 119.789 169.11C120.249 169.32 120.639 169.61 120.959 169.98C121.279 170.34 121.524 170.75 121.694 171.21C121.864 171.66 121.949 172.125 121.949 172.605C121.949 172.705 121.944 172.82 121.934 172.95C121.924 173.07 121.909 173.195 121.889 173.325H115.094V172.275H121.244L120.704 172.725C120.794 172.175 120.729 171.685 120.509 171.255C120.299 170.815 119.994 170.47 119.594 170.22C119.194 169.96 118.744 169.83 118.244 169.83C117.744 169.83 117.279 169.96 116.849 170.22C116.429 170.48 116.099 170.845 115.859 171.315C115.619 171.775 115.524 172.325 115.574 172.965C115.524 173.605 115.624 174.165 115.874 174.645C116.134 175.115 116.484 175.48 116.924 175.74C117.374 176 117.854 176.13 118.364 176.13C118.954 176.13 119.449 175.99 119.849 175.71C120.249 175.43 120.574 175.08 120.824 174.66L121.784 175.17C121.624 175.53 121.379 175.865 121.049 176.175C120.719 176.475 120.324 176.72 119.864 176.91C119.414 177.09 118.914 177.18 118.364 177.18ZM126.722 177.18C125.952 177.18 125.277 176.985 124.697 176.595C124.117 176.205 123.697 175.675 123.437 175.005L124.382 174.555C124.612 175.045 124.932 175.435 125.342 175.725C125.762 176.015 126.222 176.16 126.722 176.16C127.202 176.16 127.607 176.045 127.937 175.815C128.267 175.575 128.432 175.265 128.432 174.885C128.432 174.605 128.352 174.385 128.192 174.225C128.032 174.055 127.847 173.925 127.637 173.835C127.427 173.745 127.242 173.68 127.082 173.64L125.927 173.31C125.187 173.1 124.652 172.805 124.322 172.425C123.992 172.045 123.827 171.605 123.827 171.105C123.827 170.635 123.947 170.225 124.187 169.875C124.427 169.525 124.752 169.255 125.162 169.065C125.572 168.875 126.027 168.78 126.527 168.78C127.207 168.78 127.822 168.96 128.372 169.32C128.932 169.67 129.327 170.16 129.557 170.79L128.597 171.24C128.397 170.79 128.107 170.44 127.727 170.19C127.357 169.93 126.942 169.8 126.482 169.8C126.032 169.8 125.672 169.915 125.402 170.145C125.132 170.375 124.997 170.665 124.997 171.015C124.997 171.285 125.067 171.5 125.207 171.66C125.347 171.82 125.507 171.94 125.687 172.02C125.877 172.1 126.042 172.16 126.182 172.2L127.517 172.59C128.167 172.78 128.672 173.075 129.032 173.475C129.402 173.875 129.587 174.345 129.587 174.885C129.587 175.325 129.462 175.72 129.212 176.07C128.972 176.42 128.637 176.695 128.207 176.895C127.777 177.085 127.282 177.18 126.722 177.18ZM134.414 177.18C133.854 177.18 133.344 177.05 132.884 176.79C132.424 176.52 132.059 176.15 131.789 175.68C131.529 175.2 131.399 174.65 131.399 174.03V168.96H132.524V173.895C132.524 174.325 132.609 174.705 132.779 175.035C132.959 175.355 133.204 175.605 133.514 175.785C133.834 175.965 134.199 176.055 134.609 176.055C135.019 176.055 135.384 175.965 135.704 175.785C136.024 175.595 136.274 175.33 136.454 174.99C136.634 174.64 136.724 174.225 136.724 173.745V168.96H137.849V177H136.724V175.44L136.979 175.5C136.789 176.02 136.464 176.43 136.004 176.73C135.544 177.03 135.014 177.18 134.414 177.18ZM140.163 177V165.645H141.288V177H140.163ZM146.666 177.09C145.946 177.09 145.391 176.88 145.001 176.46C144.611 176.04 144.416 175.44 144.416 174.66V170.085H142.931V168.96H143.306C143.646 168.96 143.916 168.85 144.116 168.63C144.316 168.4 144.416 168.115 144.416 167.775V167.1H145.541V168.96H147.311V170.085H145.541V174.66C145.541 174.93 145.581 175.17 145.661 175.38C145.741 175.58 145.876 175.74 146.066 175.86C146.266 175.98 146.531 176.04 146.861 176.04C146.941 176.04 147.036 176.035 147.146 176.025C147.256 176.015 147.351 176.005 147.431 175.995V177C147.311 177.03 147.176 177.05 147.026 177.06C146.876 177.08 146.756 177.09 146.666 177.09ZM152.196 177.18C151.426 177.18 150.751 176.985 150.171 176.595C149.591 176.205 149.171 175.675 148.911 175.005L149.856 174.555C150.086 175.045 150.406 175.435 150.816 175.725C151.236 176.015 151.696 176.16 152.196 176.16C152.676 176.16 153.081 176.045 153.411 175.815C153.741 175.575 153.906 175.265 153.906 174.885C153.906 174.605 153.826 174.385 153.666 174.225C153.506 174.055 153.321 173.925 153.111 173.835C152.901 173.745 152.716 173.68 152.556 173.64L151.401 173.31C150.661 173.1 150.126 172.805 149.796 172.425C149.466 172.045 149.301 171.605 149.301 171.105C149.301 170.635 149.421 170.225 149.661 169.875C149.901 169.525 150.226 169.255 150.636 169.065C151.046 168.875 151.501 168.78 152.001 168.78C152.681 168.78 153.296 168.96 153.846 169.32C154.406 169.67 154.801 170.16 155.031 170.79L154.071 171.24C153.871 170.79 153.581 170.44 153.201 170.19C152.831 169.93 152.416 169.8 151.956 169.8C151.506 169.8 151.146 169.915 150.876 170.145C150.606 170.375 150.471 170.665 150.471 171.015C150.471 171.285 150.541 171.5 150.681 171.66C150.821 171.82 150.981 171.94 151.161 172.02C151.351 172.1 151.516 172.16 151.656 172.2L152.991 172.59C153.641 172.78 154.146 173.075 154.506 173.475C154.876 173.875 155.061 174.345 155.061 174.885C155.061 175.325 154.936 175.72 154.686 176.07C154.446 176.42 154.111 176.695 153.681 176.895C153.251 177.085 152.756 177.18 152.196 177.18Z" fill="#B5B5B5"/>
<rect x="144" y="206" width="3" height="43" fill="#2B2B2B"/>
<rect x="39.5" y="250.5" width="212" height="67" rx="8.5" fill="url(#paint2_linear_1361_104)" stroke="#2B2B2B"/>
<circle cx="65.5" cy="283.5" r="13.5" fill="#DA4040" fill-opacity="0.81"/>
<path d="M93.112 282.144C92.48 282.144 91.896 282.032 91.36 281.808C90.832 281.576 90.368 281.252 89.968 280.836C89.576 280.42 89.272 279.932 89.056 279.372C88.84 278.812 88.732 278.2 88.732 277.536C88.732 276.864 88.84 276.248 89.056 275.688C89.272 275.128 89.576 274.64 89.968 274.224C90.36 273.808 90.824 273.488 91.36 273.264C91.896 273.032 92.48 272.916 93.112 272.916C93.728 272.916 94.28 273.024 94.768 273.24C95.264 273.456 95.68 273.736 96.016 274.08C96.36 274.424 96.604 274.792 96.748 275.184L95.668 275.676C95.46 275.18 95.136 274.78 94.696 274.476C94.256 274.164 93.728 274.008 93.112 274.008C92.488 274.008 91.932 274.156 91.444 274.452C90.964 274.748 90.588 275.16 90.316 275.688C90.044 276.216 89.908 276.832 89.908 277.536C89.908 278.232 90.044 278.844 90.316 279.372C90.588 279.9 90.964 280.312 91.444 280.608C91.932 280.904 92.488 281.052 93.112 281.052C93.728 281.052 94.256 280.9 94.696 280.596C95.136 280.284 95.46 279.88 95.668 279.384L96.748 279.876C96.604 280.268 96.36 280.636 96.016 280.98C95.68 281.324 95.264 281.604 94.768 281.82C94.28 282.036 93.728 282.144 93.112 282.144ZM98.2156 282V272.916H99.3316V276.792L99.1276 276.684C99.2876 276.276 99.5436 275.96 99.8956 275.736C100.256 275.504 100.676 275.388 101.156 275.388C101.62 275.388 102.032 275.492 102.392 275.7C102.76 275.908 103.048 276.196 103.256 276.564C103.472 276.932 103.58 277.348 103.58 277.812V282H102.452V278.172C102.452 277.812 102.384 277.508 102.248 277.26C102.12 277.012 101.94 276.82 101.708 276.684C101.476 276.54 101.208 276.468 100.904 276.468C100.608 276.468 100.34 276.54 100.1 276.684C99.8596 276.82 99.6716 277.016 99.5356 277.272C99.3996 277.52 99.3316 277.82 99.3316 278.172V282H98.2156ZM108.153 282.144C107.529 282.144 106.973 281.996 106.485 281.7C105.997 281.404 105.613 281 105.333 280.488C105.053 279.968 104.913 279.388 104.913 278.748C104.913 278.1 105.049 277.524 105.321 277.02C105.601 276.516 105.977 276.12 106.449 275.832C106.929 275.536 107.465 275.388 108.057 275.388C108.537 275.388 108.961 275.476 109.329 275.652C109.705 275.82 110.021 276.052 110.277 276.348C110.541 276.636 110.741 276.968 110.877 277.344C111.021 277.712 111.092 278.096 111.092 278.496C111.092 278.584 111.085 278.684 111.069 278.796C111.061 278.9 111.049 279 111.033 279.096H105.729V278.136H110.385L109.857 278.568C109.929 278.152 109.889 277.78 109.737 277.452C109.585 277.124 109.361 276.864 109.065 276.672C108.769 276.48 108.433 276.384 108.057 276.384C107.681 276.384 107.337 276.48 107.025 276.672C106.713 276.864 106.469 277.14 106.293 277.5C106.125 277.852 106.057 278.272 106.089 278.76C106.057 279.232 106.129 279.648 106.305 280.008C106.489 280.36 106.745 280.636 107.073 280.836C107.409 281.028 107.773 281.124 108.165 281.124C108.597 281.124 108.961 281.024 109.257 280.824C109.553 280.624 109.793 280.368 109.977 280.056L110.913 280.536C110.785 280.832 110.585 281.104 110.312 281.352C110.049 281.592 109.733 281.784 109.365 281.928C109.005 282.072 108.601 282.144 108.153 282.144ZM114.362 282.144C113.938 282.144 113.562 282.068 113.234 281.916C112.914 281.756 112.662 281.54 112.478 281.268C112.294 280.988 112.202 280.668 112.202 280.308C112.202 279.964 112.274 279.656 112.418 279.384C112.57 279.104 112.802 278.868 113.114 278.676C113.434 278.484 113.834 278.348 114.314 278.268L116.714 277.872V278.808L114.566 279.168C114.15 279.24 113.846 279.372 113.654 279.564C113.47 279.756 113.378 279.992 113.378 280.272C113.378 280.536 113.482 280.756 113.69 280.932C113.906 281.108 114.174 281.196 114.494 281.196C114.902 281.196 115.254 281.112 115.55 280.944C115.854 280.768 116.09 280.532 116.258 280.236C116.434 279.94 116.522 279.612 116.522 279.252V277.608C116.522 277.256 116.39 276.972 116.126 276.756C115.87 276.532 115.53 276.42 115.106 276.42C114.738 276.42 114.41 276.516 114.122 276.708C113.842 276.892 113.634 277.14 113.498 277.452L112.526 276.948C112.646 276.652 112.838 276.388 113.102 276.156C113.366 275.916 113.674 275.728 114.026 275.592C114.378 275.456 114.746 275.388 115.13 275.388C115.626 275.388 116.062 275.484 116.438 275.676C116.814 275.86 117.106 276.12 117.314 276.456C117.53 276.784 117.638 277.168 117.638 277.608V282H116.546V280.776L116.75 280.848C116.614 281.104 116.43 281.328 116.198 281.52C115.966 281.712 115.694 281.864 115.382 281.976C115.07 282.088 114.73 282.144 114.362 282.144ZM121.879 282.072C121.247 282.072 120.759 281.892 120.415 281.532C120.079 281.172 119.911 280.664 119.911 280.008V276.6H118.735V275.532H118.975C119.263 275.532 119.491 275.444 119.659 275.268C119.827 275.092 119.911 274.86 119.911 274.572V274.044H121.027V275.532H122.479V276.6H121.027V279.972C121.027 280.188 121.059 280.376 121.123 280.536C121.195 280.696 121.311 280.824 121.471 280.92C121.631 281.008 121.843 281.052 122.107 281.052C122.163 281.052 122.231 281.048 122.311 281.04C122.399 281.032 122.479 281.024 122.551 281.016V282C122.447 282.024 122.331 282.04 122.203 282.048C122.075 282.064 121.967 282.072 121.879 282.072ZM126.809 282.144C126.185 282.144 125.629 281.996 125.141 281.7C124.653 281.404 124.269 281 123.989 280.488C123.709 279.968 123.569 279.388 123.569 278.748C123.569 278.1 123.705 277.524 123.977 277.02C124.257 276.516 124.633 276.12 125.105 275.832C125.585 275.536 126.121 275.388 126.713 275.388C127.193 275.388 127.617 275.476 127.985 275.652C128.361 275.82 128.677 276.052 128.933 276.348C129.197 276.636 129.397 276.968 129.533 277.344C129.677 277.712 129.749 278.096 129.749 278.496C129.749 278.584 129.741 278.684 129.725 278.796C129.717 278.9 129.705 279 129.689 279.096H124.385V278.136H129.041L128.513 278.568C128.585 278.152 128.545 277.78 128.393 277.452C128.241 277.124 128.017 276.864 127.721 276.672C127.425 276.48 127.089 276.384 126.713 276.384C126.337 276.384 125.993 276.48 125.681 276.672C125.369 276.864 125.125 277.14 124.949 277.5C124.781 277.852 124.713 278.272 124.745 278.76C124.713 279.232 124.785 279.648 124.961 280.008C125.145 280.36 125.401 280.636 125.729 280.836C126.065 281.028 126.429 281.124 126.821 281.124C127.253 281.124 127.617 281.024 127.913 280.824C128.209 280.624 128.449 280.368 128.633 280.056L129.569 280.536C129.441 280.832 129.241 281.104 128.969 281.352C128.705 281.592 128.389 281.784 128.021 281.928C127.661 282.072 127.257 282.144 126.809 282.144ZM131.204 282V275.532H132.296V276.72L132.176 276.552C132.328 276.184 132.56 275.912 132.872 275.736C133.184 275.552 133.564 275.46 134.012 275.46H134.408V276.516H133.844C133.388 276.516 133.02 276.66 132.74 276.948C132.46 277.228 132.32 277.628 132.32 278.148V282H131.204ZM137.605 282V273.06H140.761C141.353 273.06 141.873 273.172 142.321 273.396C142.769 273.62 143.117 273.94 143.365 274.356C143.621 274.772 143.749 275.26 143.749 275.82C143.749 276.452 143.589 276.988 143.269 277.428C142.949 277.868 142.517 278.184 141.973 278.376L144.049 282H142.681L140.497 278.124L141.277 278.58H138.781V282H137.605ZM138.781 277.5H140.797C141.149 277.5 141.457 277.432 141.721 277.296C141.985 277.16 142.189 276.964 142.333 276.708C142.485 276.452 142.561 276.156 142.561 275.82C142.561 275.476 142.485 275.18 142.333 274.932C142.189 274.676 141.985 274.48 141.721 274.344C141.457 274.208 141.149 274.14 140.797 274.14H138.781V277.5ZM147.867 282.144C147.243 282.144 146.687 281.996 146.199 281.7C145.711 281.404 145.327 281 145.047 280.488C144.767 279.968 144.627 279.388 144.627 278.748C144.627 278.1 144.763 277.524 145.035 277.02C145.315 276.516 145.691 276.12 146.163 275.832C146.643 275.536 147.179 275.388 147.771 275.388C148.251 275.388 148.675 275.476 149.043 275.652C149.419 275.82 149.735 276.052 149.991 276.348C150.255 276.636 150.455 276.968 150.591 277.344C150.735 277.712 150.807 278.096 150.807 278.496C150.807 278.584 150.799 278.684 150.783 278.796C150.775 278.9 150.763 279 150.747 279.096H145.443V278.136H150.099L149.571 278.568C149.643 278.152 149.603 277.78 149.451 277.452C149.299 277.124 149.075 276.864 148.779 276.672C148.483 276.48 148.147 276.384 147.771 276.384C147.395 276.384 147.051 276.48 146.739 276.672C146.427 276.864 146.183 277.14 146.007 277.5C145.839 277.852 145.771 278.272 145.803 278.76C145.771 279.232 145.843 279.648 146.019 280.008C146.203 280.36 146.459 280.636 146.787 280.836C147.123 281.028 147.487 281.124 147.879 281.124C148.311 281.124 148.675 281.024 148.971 280.824C149.267 280.624 149.507 280.368 149.691 280.056L150.627 280.536C150.499 280.832 150.299 281.104 150.027 281.352C149.763 281.592 149.447 281.784 149.079 281.928C148.719 282.072 148.315 282.144 147.867 282.144ZM154.578 282.144C153.93 282.144 153.366 281.984 152.886 281.664C152.406 281.344 152.066 280.912 151.866 280.368L152.754 279.936C152.938 280.32 153.19 280.624 153.51 280.848C153.83 281.072 154.186 281.184 154.578 281.184C154.93 281.184 155.222 281.1 155.454 280.932C155.686 280.764 155.802 280.544 155.802 280.272C155.802 280.08 155.746 279.928 155.634 279.816C155.53 279.696 155.402 279.604 155.25 279.54C155.098 279.468 154.958 279.416 154.83 279.384L153.858 279.108C153.274 278.94 152.846 278.7 152.574 278.388C152.31 278.076 152.178 277.712 152.178 277.296C152.178 276.912 152.274 276.58 152.466 276.3C152.666 276.012 152.934 275.788 153.27 275.628C153.614 275.468 153.998 275.388 154.422 275.388C154.99 275.388 155.498 275.532 155.946 275.82C156.402 276.108 156.726 276.512 156.918 277.032L156.006 277.452C155.862 277.116 155.646 276.852 155.358 276.66C155.07 276.46 154.746 276.36 154.386 276.36C154.058 276.36 153.798 276.444 153.606 276.612C153.414 276.772 153.318 276.976 153.318 277.224C153.318 277.408 153.366 277.56 153.462 277.68C153.558 277.792 153.674 277.88 153.81 277.944C153.946 278 154.078 278.048 154.206 278.088L155.262 278.4C155.79 278.552 156.198 278.788 156.486 279.108C156.782 279.428 156.93 279.812 156.93 280.26C156.93 280.62 156.83 280.944 156.63 281.232C156.43 281.52 156.154 281.744 155.802 281.904C155.45 282.064 155.042 282.144 154.578 282.144ZM160.683 282.144C160.219 282.144 159.799 282.036 159.423 281.82C159.055 281.604 158.767 281.304 158.559 280.92C158.359 280.528 158.259 280.08 158.259 279.576V275.532H159.375V279.456C159.375 279.776 159.439 280.056 159.567 280.296C159.703 280.536 159.887 280.724 160.119 280.86C160.359 280.996 160.631 281.064 160.935 281.064C161.239 281.064 161.507 280.996 161.739 280.86C161.979 280.724 162.163 280.528 162.291 280.272C162.427 280.016 162.495 279.712 162.495 279.36V275.532H163.623V282H162.531V280.74L162.711 280.848C162.559 281.256 162.299 281.576 161.931 281.808C161.571 282.032 161.155 282.144 160.683 282.144ZM165.352 282V272.916H166.468V282H165.352ZM170.828 282.072C170.196 282.072 169.708 281.892 169.364 281.532C169.028 281.172 168.86 280.664 168.86 280.008V276.6H167.684V275.532H167.924C168.212 275.532 168.44 275.444 168.608 275.268C168.776 275.092 168.86 274.86 168.86 274.572V274.044H169.976V275.532H171.428V276.6H169.976V279.972C169.976 280.188 170.008 280.376 170.072 280.536C170.144 280.696 170.26 280.824 170.42 280.92C170.58 281.008 170.792 281.052 171.056 281.052C171.112 281.052 171.18 281.048 171.26 281.04C171.348 281.032 171.428 281.024 171.5 281.016V282C171.396 282.024 171.28 282.04 171.152 282.048C171.024 282.064 170.916 282.072 170.828 282.072Z" fill="white"/>
<g clip-path="url(#clip1_1361_104)">
<path d="M220.5 273.375C219.572 273.375 218.812 274.134 218.812 275.062C218.812 275.991 219.572 276.75 220.5 276.75C221.428 276.75 222.188 275.991 222.188 275.062C222.188 274.134 221.428 273.375 220.5 273.375ZM220.5 290.25C219.572 290.25 218.812 291.009 218.812 291.938C218.812 292.866 219.572 293.625 220.5 293.625C221.428 293.625 222.188 292.866 222.188 291.938C222.188 291.009 221.428 290.25 220.5 290.25ZM220.5 281.812C219.572 281.812 218.812 282.572 218.812 283.5C218.812 284.428 219.572 285.188 220.5 285.188C221.428 285.188 222.188 284.428 222.188 283.5C222.188 282.572 221.428 281.812 220.5 281.812Z" fill="#616161"/>
</g>
<path d="M250.79 145.457C249.549 145.457 248.533 146.473 248.533 147.714C248.533 148.956 249.549 149.971 250.79 149.971C252.032 149.971 253.048 148.956 253.048 147.714C253.048 146.473 252.032 145.457 250.79 145.457ZM250.79 168.028C249.549 168.028 248.533 169.044 248.533 170.286C248.533 171.527 249.549 172.543 250.79 172.543C252.032 172.543 253.048 171.527 253.048 170.286C253.048 169.044 252.032 168.028 250.79 168.028ZM250.79 156.743C249.549 156.743 248.533 157.758 248.533 159C248.533 160.241 249.549 161.257 250.79 161.257C252.032 161.257 253.048 160.241 253.048 159C253.048 157.758 252.032 156.743 250.79 156.743Z" fill="#616161"/>
<path d="M88.88 295V287.55H89.68V294.25H92.98V295H88.88ZM96.5925 295.12C96.0858 295.12 95.6258 295 95.2125 294.76C94.7992 294.513 94.4692 294.18 94.2225 293.76C93.9825 293.333 93.8625 292.85 93.8625 292.31C93.8625 291.777 93.9825 291.3 94.2225 290.88C94.4625 290.46 94.7858 290.13 95.1925 289.89C95.6058 289.643 96.0725 289.52 96.5925 289.52C97.1125 289.52 97.5758 289.64 97.9825 289.88C98.3958 290.12 98.7192 290.45 98.9525 290.87C99.1925 291.29 99.3125 291.77 99.3125 292.31C99.3125 292.857 99.1892 293.343 98.9425 293.77C98.6958 294.19 98.3658 294.52 97.9525 294.76C97.5458 295 97.0925 295.12 96.5925 295.12ZM96.5925 294.37C96.9525 294.37 97.2758 294.28 97.5625 294.1C97.8558 293.92 98.0858 293.673 98.2525 293.36C98.4258 293.047 98.5125 292.697 98.5125 292.31C98.5125 291.923 98.4258 291.577 98.2525 291.27C98.0858 290.963 97.8558 290.72 97.5625 290.54C97.2758 290.36 96.9525 290.27 96.5925 290.27C96.2325 290.27 95.9058 290.36 95.6125 290.54C95.3258 290.72 95.0958 290.963 94.9225 291.27C94.7492 291.577 94.6625 291.923 94.6625 292.31C94.6625 292.697 94.7492 293.047 94.9225 293.36C95.0958 293.673 95.3258 293.92 95.6125 294.1C95.9058 294.28 96.2325 294.37 96.5925 294.37ZM103.145 295.12C102.639 295.12 102.179 295 101.765 294.76C101.352 294.513 101.022 294.18 100.775 293.76C100.535 293.333 100.415 292.85 100.415 292.31C100.415 291.777 100.535 291.3 100.775 290.88C101.015 290.46 101.339 290.13 101.745 289.89C102.159 289.643 102.625 289.52 103.145 289.52C103.665 289.52 104.129 289.64 104.535 289.88C104.949 290.12 105.272 290.45 105.505 290.87C105.745 291.29 105.865 291.77 105.865 292.31C105.865 292.857 105.742 293.343 105.495 293.77C105.249 294.19 104.919 294.52 104.505 294.76C104.099 295 103.645 295.12 103.145 295.12ZM103.145 294.37C103.505 294.37 103.829 294.28 104.115 294.1C104.409 293.92 104.639 293.673 104.805 293.36C104.979 293.047 105.065 292.697 105.065 292.31C105.065 291.923 104.979 291.577 104.805 291.27C104.639 290.963 104.409 290.72 104.115 290.54C103.829 290.36 103.505 290.27 103.145 290.27C102.785 290.27 102.459 290.36 102.165 290.54C101.879 290.72 101.649 290.963 101.475 291.27C101.302 291.577 101.215 291.923 101.215 292.31C101.215 292.697 101.302 293.047 101.475 293.36C101.649 293.673 101.879 293.92 102.165 294.1C102.459 294.28 102.785 294.37 103.145 294.37ZM107.188 295V287.43H107.938V292.73L107.618 292.68L110.628 289.64H111.598L109.498 291.79L111.788 295H110.888L108.738 292.03L109.218 292.07L107.688 293.65L107.938 293.03V295H107.188ZM114.476 295V287.55H117.036C117.522 287.55 117.949 287.647 118.316 287.84C118.682 288.027 118.966 288.293 119.166 288.64C119.372 288.98 119.476 289.377 119.476 289.83C119.476 290.357 119.336 290.807 119.056 291.18C118.782 291.553 118.409 291.817 117.936 291.97L119.676 295H118.736L116.916 291.79L117.456 292.1H115.276V295H114.476ZM115.276 291.35H117.076C117.396 291.35 117.676 291.29 117.916 291.17C118.156 291.043 118.342 290.867 118.476 290.64C118.609 290.407 118.676 290.133 118.676 289.82C118.676 289.507 118.609 289.237 118.476 289.01C118.342 288.783 118.156 288.61 117.916 288.49C117.676 288.363 117.396 288.3 117.076 288.3H115.276V291.35ZM122.909 295.12C122.409 295.12 121.956 295 121.549 294.76C121.149 294.513 120.833 294.177 120.599 293.75C120.366 293.323 120.249 292.84 120.249 292.3C120.249 291.76 120.363 291.283 120.589 290.87C120.816 290.45 121.123 290.12 121.509 289.88C121.903 289.64 122.343 289.52 122.829 289.52C123.216 289.52 123.559 289.593 123.859 289.74C124.166 289.88 124.426 290.073 124.639 290.32C124.853 290.56 125.016 290.833 125.129 291.14C125.243 291.44 125.299 291.75 125.299 292.07C125.299 292.137 125.296 292.213 125.289 292.3C125.283 292.38 125.273 292.463 125.259 292.55H120.729V291.85H124.829L124.469 292.15C124.529 291.783 124.486 291.457 124.339 291.17C124.199 290.877 123.996 290.647 123.729 290.48C123.463 290.307 123.163 290.22 122.829 290.22C122.496 290.22 122.186 290.307 121.899 290.48C121.619 290.653 121.399 290.897 121.239 291.21C121.079 291.517 121.016 291.883 121.049 292.31C121.016 292.737 121.083 293.11 121.249 293.43C121.423 293.743 121.656 293.987 121.949 294.16C122.249 294.333 122.569 294.42 122.909 294.42C123.303 294.42 123.633 294.327 123.899 294.14C124.166 293.953 124.383 293.72 124.549 293.44L125.189 293.78C125.083 294.02 124.919 294.243 124.699 294.45C124.479 294.65 124.216 294.813 123.909 294.94C123.609 295.06 123.276 295.12 122.909 295.12ZM128.482 295.12C127.968 295.12 127.518 294.99 127.132 294.73C126.745 294.47 126.465 294.117 126.292 293.67L126.922 293.37C127.075 293.697 127.288 293.957 127.562 294.15C127.842 294.343 128.148 294.44 128.482 294.44C128.802 294.44 129.072 294.363 129.292 294.21C129.512 294.05 129.622 293.843 129.622 293.59C129.622 293.403 129.568 293.257 129.462 293.15C129.355 293.037 129.232 292.95 129.092 292.89C128.952 292.83 128.828 292.787 128.722 292.76L127.952 292.54C127.458 292.4 127.102 292.203 126.882 291.95C126.662 291.697 126.552 291.403 126.552 291.07C126.552 290.757 126.632 290.483 126.792 290.25C126.952 290.017 127.168 289.837 127.442 289.71C127.715 289.583 128.018 289.52 128.352 289.52C128.805 289.52 129.215 289.64 129.582 289.88C129.955 290.113 130.218 290.44 130.372 290.86L129.732 291.16C129.598 290.86 129.405 290.627 129.152 290.46C128.905 290.287 128.628 290.2 128.322 290.2C128.022 290.2 127.782 290.277 127.602 290.43C127.422 290.583 127.332 290.777 127.332 291.01C127.332 291.19 127.378 291.333 127.472 291.44C127.565 291.547 127.672 291.627 127.792 291.68C127.918 291.733 128.028 291.773 128.122 291.8L129.012 292.06C129.445 292.187 129.782 292.383 130.022 292.65C130.268 292.917 130.392 293.23 130.392 293.59C130.392 293.883 130.308 294.147 130.142 294.38C129.982 294.613 129.758 294.797 129.472 294.93C129.185 295.057 128.855 295.12 128.482 295.12ZM133.609 295.12C133.236 295.12 132.896 295.033 132.589 294.86C132.283 294.68 132.039 294.433 131.859 294.12C131.686 293.8 131.599 293.433 131.599 293.02V289.64H132.349V292.93C132.349 293.217 132.406 293.47 132.519 293.69C132.639 293.903 132.803 294.07 133.009 294.19C133.223 294.31 133.466 294.37 133.739 294.37C134.013 294.37 134.256 294.31 134.469 294.19C134.683 294.063 134.849 293.887 134.969 293.66C135.089 293.427 135.149 293.15 135.149 292.83V289.64H135.899V295H135.149V293.96L135.319 294C135.193 294.347 134.976 294.62 134.669 294.82C134.363 295.02 134.009 295.12 133.609 295.12ZM137.442 295V287.43H138.192V295H137.442ZM141.777 295.06C141.297 295.06 140.927 294.92 140.667 294.64C140.407 294.36 140.277 293.96 140.277 293.44V290.39H139.287V289.64H139.537C139.764 289.64 139.944 289.567 140.077 289.42C140.21 289.267 140.277 289.077 140.277 288.85V288.4H141.027V289.64H142.207V290.39H141.027V293.44C141.027 293.62 141.054 293.78 141.107 293.92C141.16 294.053 141.25 294.16 141.377 294.24C141.51 294.32 141.687 294.36 141.907 294.36C141.96 294.36 142.024 294.357 142.097 294.35C142.17 294.343 142.234 294.337 142.287 294.33V295C142.207 295.02 142.117 295.033 142.017 295.04C141.917 295.053 141.837 295.06 141.777 295.06ZM145.464 295.12C144.951 295.12 144.501 294.99 144.114 294.73C143.727 294.47 143.447 294.117 143.274 293.67L143.904 293.37C144.057 293.697 144.271 293.957 144.544 294.15C144.824 294.343 145.131 294.44 145.464 294.44C145.784 294.44 146.054 294.363 146.274 294.21C146.494 294.05 146.604 293.843 146.604 293.59C146.604 293.403 146.551 293.257 146.444 293.15C146.337 293.037 146.214 292.95 146.074 292.89C145.934 292.83 145.811 292.787 145.704 292.76L144.934 292.54C144.441 292.4 144.084 292.203 143.864 291.95C143.644 291.697 143.534 291.403 143.534 291.07C143.534 290.757 143.614 290.483 143.774 290.25C143.934 290.017 144.151 289.837 144.424 289.71C144.697 289.583 145.001 289.52 145.334 289.52C145.787 289.52 146.197 289.64 146.564 289.88C146.937 290.113 147.201 290.44 147.354 290.86L146.714 291.16C146.581 290.86 146.387 290.627 146.134 290.46C145.887 290.287 145.611 290.2 145.304 290.2C145.004 290.2 144.764 290.277 144.584 290.43C144.404 290.583 144.314 290.777 144.314 291.01C144.314 291.19 144.361 291.333 144.454 291.44C144.547 291.547 144.654 291.627 144.774 291.68C144.901 291.733 145.011 291.773 145.104 291.8L145.994 292.06C146.427 292.187 146.764 292.383 147.004 292.65C147.251 292.917 147.374 293.23 147.374 293.59C147.374 293.883 147.291 294.147 147.124 294.38C146.964 294.613 146.741 294.797 146.454 294.93C146.167 295.057 145.837 295.12 145.464 295.12Z" fill="#B5B5B5"/>
<defs>
<linearGradient id="paint0_linear_1361_104" x1="137.827" y1="76.7653" x2="134.281" y2="1.01634" gradientUnits="userSpaceOnUse">
<stop stop-color="#0F0F0F"/>
<stop offset="1" stop-color="#1A1A1A"/>
</linearGradient>
<linearGradient id="paint1_linear_1361_104" x1="134.064" y1="217.316" x2="129.216" y2="114.023" gradientUnits="userSpaceOnUse">
<stop stop-color="#0F0F0F"/>
<stop offset="1" stop-color="#1A1A1A"/>
</linearGradient>
<linearGradient id="paint2_linear_1361_104" x1="137.827" y1="326.765" x2="134.281" y2="251.016" gradientUnits="userSpaceOnUse">
<stop stop-color="#0F0F0F"/>
<stop offset="1" stop-color="#1A1A1A"/>
</linearGradient>
<clipPath id="clip0_1361_104">
<rect width="27" height="27" fill="white" transform="translate(207 21)"/>
</clipPath>
<clipPath id="clip1_1361_104">
<rect width="27" height="27" fill="white" transform="translate(207 270)"/>
</clipPath>
</defs>
</svg>
