<svg width="551" height="495" viewBox="0 0 551 495" fill="none" xmlns="http://www.w3.org/2000/svg">
<rect x="0.5" y="0.5" width="304" height="104" rx="8.5" fill="url(#paint0_linear_1361_73)" stroke="#2B2B2B"/>
<rect x="234.5" y="385.5" width="316" height="109" rx="8.5" fill="url(#paint1_linear_1361_73)" stroke="#2B2B2B"/>
<path d="M127.045 102.773C127.045 102.773 114.159 222.211 253.379 222.211C392.598 222.212 386.023 382.227 386.023 382.227" stroke="url(#paint2_linear_1361_73)" stroke-width="5"/>
<circle cx="259.5" cy="220.5" r="25" fill="url(#paint3_linear_1361_73)" stroke="#373737"/>
<g clip-path="url(#clip0_1361_73)">
<path d="M259.5 232.583C258.072 232.583 256.658 232.302 255.338 231.756C254.019 231.209 252.82 230.408 251.81 229.398C250.8 228.388 249.999 227.189 249.453 225.87C248.906 224.551 248.625 223.137 248.625 221.708C248.625 220.28 248.906 218.866 249.453 217.547C249.999 216.227 250.8 215.028 251.81 214.019C252.82 213.009 254.019 212.208 255.338 211.661C256.658 211.115 258.072 210.833 259.5 210.833C262.384 210.833 265.15 211.979 267.19 214.019C269.229 216.058 270.375 218.824 270.375 221.708C270.375 224.593 269.229 227.359 267.19 229.398C265.15 231.438 262.384 232.583 259.5 232.583ZM259.5 230.167C260.611 230.167 261.711 229.948 262.737 229.523C263.763 229.098 264.695 228.475 265.481 227.689C266.266 226.904 266.889 225.971 267.314 224.945C267.739 223.919 267.958 222.819 267.958 221.708C267.958 220.598 267.739 219.498 267.314 218.472C266.889 217.445 266.266 216.513 265.481 215.727C264.695 214.942 263.763 214.319 262.737 213.894C261.711 213.469 260.611 213.25 259.5 213.25C257.257 213.25 255.105 214.141 253.519 215.727C251.933 217.314 251.042 219.465 251.042 221.708C251.042 223.952 251.933 226.103 253.519 227.689C255.105 229.276 257.257 230.167 259.5 230.167ZM260.708 221.708H264.333V224.125H258.292V215.667H260.708V221.708ZM247.111 213.591L251.382 209.319L253.092 211.028L248.818 215.301L247.111 213.591ZM267.616 209.319L271.889 213.591L270.18 215.301L265.908 211.028L267.617 209.319H267.616Z" fill="#888888"/>
</g>
<rect x="260" y="409" width="6" height="62" rx="3" fill="#45A557"/>
<path d="M282.54 436V421.1H287.96C288.96 421.1 289.84 421.287 290.6 421.66C291.36 422.02 291.953 422.553 292.38 423.26C292.82 423.953 293.04 424.787 293.04 425.76C293.04 426.787 292.78 427.667 292.26 428.4C291.753 429.133 291.067 429.667 290.2 430L293.64 436H290.96L287.3 429.5L288.84 430.4H284.9V436H282.54ZM284.9 428.3H288C288.547 428.3 289.02 428.193 289.42 427.98C289.82 427.767 290.127 427.473 290.34 427.1C290.567 426.713 290.68 426.26 290.68 425.74C290.68 425.22 290.567 424.773 290.34 424.4C290.127 424.013 289.82 423.72 289.42 423.52C289.02 423.307 288.547 423.2 288 423.2H284.9V428.3ZM299.88 436.24C298.8 436.24 297.84 435.993 297 435.5C296.174 434.993 295.527 434.313 295.06 433.46C294.594 432.593 294.36 431.627 294.36 430.56C294.36 429.467 294.594 428.5 295.06 427.66C295.54 426.82 296.18 426.16 296.98 425.68C297.78 425.187 298.687 424.94 299.7 424.94C300.514 424.94 301.24 425.08 301.88 425.36C302.52 425.64 303.06 426.027 303.5 426.52C303.94 427 304.274 427.553 304.5 428.18C304.74 428.807 304.86 429.473 304.86 430.18C304.86 430.353 304.854 430.533 304.84 430.72C304.827 430.907 304.8 431.08 304.76 431.24H296.14V429.44H303.48L302.4 430.26C302.534 429.607 302.487 429.027 302.26 428.52C302.047 428 301.714 427.593 301.26 427.3C300.82 426.993 300.3 426.84 299.7 426.84C299.1 426.84 298.567 426.993 298.1 427.3C297.634 427.593 297.274 428.02 297.02 428.58C296.767 429.127 296.667 429.793 296.72 430.58C296.654 431.313 296.754 431.953 297.02 432.5C297.3 433.047 297.687 433.473 298.18 433.78C298.687 434.087 299.26 434.24 299.9 434.24C300.554 434.24 301.107 434.093 301.56 433.8C302.027 433.507 302.394 433.127 302.66 432.66L304.5 433.56C304.287 434.067 303.954 434.527 303.5 434.94C303.06 435.34 302.527 435.66 301.9 435.9C301.287 436.127 300.614 436.24 299.88 436.24ZM311.066 436.24C309.959 436.24 308.986 435.967 308.146 435.42C307.319 434.873 306.739 434.14 306.406 433.22L308.146 432.4C308.439 433.013 308.839 433.5 309.346 433.86C309.866 434.22 310.439 434.4 311.066 434.4C311.599 434.4 312.033 434.28 312.366 434.04C312.699 433.8 312.866 433.473 312.866 433.06C312.866 432.793 312.793 432.58 312.646 432.42C312.499 432.247 312.313 432.107 312.086 432C311.873 431.893 311.653 431.813 311.426 431.76L309.726 431.28C308.793 431.013 308.093 430.613 307.626 430.08C307.173 429.533 306.946 428.9 306.946 428.18C306.946 427.527 307.113 426.96 307.446 426.48C307.779 425.987 308.239 425.607 308.826 425.34C309.413 425.073 310.073 424.94 310.806 424.94C311.793 424.94 312.673 425.187 313.446 425.68C314.219 426.16 314.766 426.833 315.086 427.7L313.346 428.52C313.133 428 312.793 427.587 312.326 427.28C311.873 426.973 311.359 426.82 310.786 426.82C310.293 426.82 309.899 426.94 309.606 427.18C309.313 427.407 309.166 427.707 309.166 428.08C309.166 428.333 309.233 428.547 309.366 428.72C309.499 428.88 309.673 429.013 309.886 429.12C310.099 429.213 310.319 429.293 310.546 429.36L312.306 429.88C313.199 430.133 313.886 430.533 314.366 431.08C314.846 431.613 315.086 432.253 315.086 433C315.086 433.64 314.913 434.207 314.566 434.7C314.233 435.18 313.766 435.56 313.166 435.84C312.566 436.107 311.866 436.24 311.066 436.24ZM321.16 436.24C320.347 436.24 319.634 436.06 319.02 435.7C318.407 435.327 317.927 434.813 317.58 434.16C317.247 433.493 317.08 432.727 317.08 431.86V425.18H319.34V431.66C319.34 432.153 319.44 432.587 319.64 432.96C319.84 433.333 320.12 433.627 320.48 433.84C320.84 434.04 321.254 434.14 321.72 434.14C322.2 434.14 322.62 434.033 322.98 433.82C323.34 433.607 323.62 433.307 323.82 432.92C324.034 432.533 324.14 432.08 324.14 431.56V425.18H326.38V436H324.24V433.88L324.48 434.16C324.227 434.827 323.807 435.34 323.22 435.7C322.634 436.06 321.947 436.24 321.16 436.24ZM329.019 436V420.86H331.279V436H329.019ZM338.602 436.12C337.468 436.12 336.588 435.8 335.962 435.16C335.335 434.52 335.022 433.62 335.022 432.46V427.22H333.122V425.18H333.422C333.928 425.18 334.322 425.033 334.602 424.74C334.882 424.447 335.022 424.047 335.022 423.54V422.7H337.282V425.18H339.742V427.22H337.282V432.36C337.282 432.733 337.342 433.053 337.462 433.32C337.582 433.573 337.775 433.773 338.042 433.92C338.308 434.053 338.655 434.12 339.082 434.12C339.188 434.12 339.308 434.113 339.442 434.1C339.575 434.087 339.702 434.073 339.822 434.06V436C339.635 436.027 339.428 436.053 339.202 436.08C338.975 436.107 338.775 436.12 338.602 436.12ZM346.027 436.24C344.92 436.24 343.947 435.967 343.107 435.42C342.28 434.873 341.7 434.14 341.367 433.22L343.107 432.4C343.4 433.013 343.8 433.5 344.307 433.86C344.827 434.22 345.4 434.4 346.027 434.4C346.56 434.4 346.994 434.28 347.327 434.04C347.66 433.8 347.827 433.473 347.827 433.06C347.827 432.793 347.754 432.58 347.607 432.42C347.46 432.247 347.274 432.107 347.047 432C346.834 431.893 346.614 431.813 346.387 431.76L344.687 431.28C343.754 431.013 343.054 430.613 342.587 430.08C342.134 429.533 341.907 428.9 341.907 428.18C341.907 427.527 342.074 426.96 342.407 426.48C342.74 425.987 343.2 425.607 343.787 425.34C344.374 425.073 345.034 424.94 345.767 424.94C346.754 424.94 347.634 425.187 348.407 425.68C349.18 426.16 349.727 426.833 350.047 427.7L348.307 428.52C348.094 428 347.754 427.587 347.287 427.28C346.834 426.973 346.32 426.82 345.747 426.82C345.254 426.82 344.86 426.94 344.567 427.18C344.274 427.407 344.127 427.707 344.127 428.08C344.127 428.333 344.194 428.547 344.327 428.72C344.46 428.88 344.634 429.013 344.847 429.12C345.06 429.213 345.28 429.293 345.507 429.36L347.267 429.88C348.16 430.133 348.847 430.533 349.327 431.08C349.807 431.613 350.047 432.253 350.047 433C350.047 433.64 349.874 434.207 349.527 434.7C349.194 435.18 348.727 435.56 348.127 435.84C347.527 436.107 346.827 436.24 346.027 436.24Z" fill="#BFBFBF"/>
<path d="M282.584 459V445.59H286.994C288.326 445.59 289.484 445.866 290.468 446.418C291.452 446.958 292.214 447.732 292.754 448.74C293.294 449.736 293.564 450.918 293.564 452.286C293.564 453.642 293.294 454.824 292.754 455.832C292.214 456.84 291.452 457.62 290.468 458.172C289.484 458.724 288.326 459 286.994 459H282.584ZM284.024 457.65H286.994C288.026 457.65 288.92 457.434 289.676 457.002C290.432 456.558 291.014 455.934 291.422 455.13C291.842 454.326 292.052 453.378 292.052 452.286C292.052 451.194 291.842 450.252 291.422 449.46C291.002 448.656 290.414 448.038 289.658 447.606C288.902 447.162 288.014 446.94 286.994 446.94H284.024V457.65ZM298.36 459.216C297.748 459.216 297.202 459.102 296.722 458.874C296.242 458.634 295.864 458.31 295.588 457.902C295.312 457.494 295.174 457.026 295.174 456.498C295.174 455.994 295.282 455.538 295.498 455.13C295.714 454.71 296.05 454.356 296.506 454.068C296.962 453.78 297.544 453.576 298.252 453.456L302.032 452.826V454.05L298.576 454.626C297.88 454.746 297.376 454.968 297.064 455.292C296.764 455.616 296.614 456 296.614 456.444C296.614 456.876 296.782 457.242 297.118 457.542C297.466 457.842 297.91 457.992 298.45 457.992C299.11 457.992 299.686 457.854 300.178 457.578C300.67 457.29 301.054 456.906 301.33 456.426C301.606 455.946 301.744 455.412 301.744 454.824V452.376C301.744 451.8 301.534 451.332 301.114 450.972C300.694 450.612 300.148 450.432 299.476 450.432C298.888 450.432 298.372 450.582 297.928 450.882C297.484 451.17 297.154 451.548 296.938 452.016L295.714 451.35C295.894 450.942 296.176 450.57 296.56 450.234C296.956 449.898 297.406 449.634 297.91 449.442C298.414 449.238 298.936 449.136 299.476 449.136C300.184 449.136 300.808 449.274 301.348 449.55C301.9 449.826 302.326 450.21 302.626 450.702C302.938 451.182 303.094 451.74 303.094 452.376V459H301.744V457.074L301.942 457.272C301.774 457.632 301.51 457.962 301.15 458.262C300.802 458.55 300.388 458.784 299.908 458.964C299.44 459.132 298.924 459.216 298.36 459.216ZM309.218 459.216C308.294 459.216 307.484 458.982 306.788 458.514C306.092 458.046 305.588 457.41 305.276 456.606L306.41 456.066C306.686 456.654 307.07 457.122 307.562 457.47C308.066 457.818 308.618 457.992 309.218 457.992C309.794 457.992 310.28 457.854 310.676 457.578C311.072 457.29 311.27 456.918 311.27 456.462C311.27 456.126 311.174 455.862 310.982 455.67C310.79 455.466 310.568 455.31 310.316 455.202C310.064 455.094 309.842 455.016 309.65 454.968L308.264 454.572C307.376 454.32 306.734 453.966 306.338 453.51C305.942 453.054 305.744 452.526 305.744 451.926C305.744 451.362 305.888 450.87 306.176 450.45C306.464 450.03 306.854 449.706 307.346 449.478C307.838 449.25 308.384 449.136 308.984 449.136C309.8 449.136 310.538 449.352 311.198 449.784C311.87 450.204 312.344 450.792 312.62 451.548L311.468 452.088C311.228 451.548 310.88 451.128 310.424 450.828C309.98 450.516 309.482 450.36 308.93 450.36C308.39 450.36 307.958 450.498 307.634 450.774C307.31 451.05 307.148 451.398 307.148 451.818C307.148 452.142 307.232 452.4 307.4 452.592C307.568 452.784 307.76 452.928 307.976 453.024C308.204 453.12 308.402 453.192 308.57 453.24L310.172 453.708C310.952 453.936 311.558 454.29 311.99 454.77C312.434 455.25 312.656 455.814 312.656 456.462C312.656 456.99 312.506 457.464 312.206 457.884C311.918 458.304 311.516 458.634 311 458.874C310.484 459.102 309.89 459.216 309.218 459.216ZM315.029 459V445.374H316.379V451.224L316.073 451.152C316.313 450.528 316.703 450.036 317.243 449.676C317.795 449.316 318.431 449.136 319.151 449.136C319.835 449.136 320.447 449.292 320.987 449.604C321.539 449.916 321.971 450.348 322.283 450.9C322.607 451.44 322.769 452.052 322.769 452.736V459H321.419V453.258C321.419 452.67 321.311 452.172 321.095 451.764C320.879 451.356 320.579 451.044 320.195 450.828C319.823 450.6 319.397 450.486 318.917 450.486C318.437 450.486 318.005 450.6 317.621 450.828C317.237 451.044 316.931 451.362 316.703 451.782C316.487 452.19 316.379 452.682 316.379 453.258V459H315.029ZM330.225 459.216C329.397 459.216 328.647 459.03 327.975 458.658C327.315 458.274 326.817 457.734 326.481 457.038L326.697 456.84V459H325.347V445.374H326.697V451.512L326.481 451.134C326.865 450.522 327.375 450.036 328.011 449.676C328.659 449.316 329.397 449.136 330.225 449.136C331.137 449.136 331.947 449.358 332.655 449.802C333.375 450.234 333.939 450.828 334.347 451.584C334.767 452.34 334.977 453.204 334.977 454.176C334.977 455.136 334.767 456 334.347 456.768C333.939 457.524 333.375 458.124 332.655 458.568C331.947 459 331.137 459.216 330.225 459.216ZM330.153 457.866C330.801 457.866 331.377 457.704 331.881 457.38C332.397 457.056 332.799 456.618 333.087 456.066C333.387 455.502 333.537 454.872 333.537 454.176C333.537 453.468 333.387 452.838 333.087 452.286C332.799 451.734 332.397 451.296 331.881 450.972C331.377 450.648 330.801 450.486 330.153 450.486C329.505 450.486 328.917 450.648 328.389 450.972C327.873 451.296 327.459 451.74 327.147 452.304C326.847 452.856 326.697 453.48 326.697 454.176C326.697 454.872 326.847 455.502 327.147 456.066C327.459 456.618 327.873 457.056 328.389 457.38C328.917 457.704 329.505 457.866 330.153 457.866ZM341.871 459.216C340.959 459.216 340.131 459 339.387 458.568C338.643 458.124 338.049 457.524 337.605 456.768C337.173 456 336.957 455.13 336.957 454.158C336.957 453.198 337.173 452.34 337.605 451.584C338.037 450.828 338.619 450.234 339.351 449.802C340.095 449.358 340.935 449.136 341.871 449.136C342.807 449.136 343.641 449.352 344.373 449.784C345.117 450.216 345.699 450.81 346.119 451.566C346.551 452.322 346.767 453.186 346.767 454.158C346.767 455.142 346.545 456.018 346.101 456.786C345.657 457.542 345.063 458.136 344.319 458.568C343.587 459 342.771 459.216 341.871 459.216ZM341.871 457.866C342.519 457.866 343.101 457.704 343.617 457.38C344.145 457.056 344.559 456.612 344.859 456.048C345.171 455.484 345.327 454.854 345.327 454.158C345.327 453.462 345.171 452.838 344.859 452.286C344.559 451.734 344.145 451.296 343.617 450.972C343.101 450.648 342.519 450.486 341.871 450.486C341.223 450.486 340.635 450.648 340.107 450.972C339.591 451.296 339.177 451.734 338.865 452.286C338.553 452.838 338.397 453.462 338.397 454.158C338.397 454.854 338.553 455.484 338.865 456.048C339.177 456.612 339.591 457.056 340.107 457.38C340.635 457.704 341.223 457.866 341.871 457.866ZM351.938 459.216C351.326 459.216 350.78 459.102 350.3 458.874C349.82 458.634 349.442 458.31 349.166 457.902C348.89 457.494 348.752 457.026 348.752 456.498C348.752 455.994 348.86 455.538 349.076 455.13C349.292 454.71 349.628 454.356 350.084 454.068C350.54 453.78 351.122 453.576 351.83 453.456L355.61 452.826V454.05L352.154 454.626C351.458 454.746 350.954 454.968 350.642 455.292C350.342 455.616 350.192 456 350.192 456.444C350.192 456.876 350.36 457.242 350.696 457.542C351.044 457.842 351.488 457.992 352.028 457.992C352.688 457.992 353.264 457.854 353.756 457.578C354.248 457.29 354.632 456.906 354.908 456.426C355.184 455.946 355.322 455.412 355.322 454.824V452.376C355.322 451.8 355.112 451.332 354.692 450.972C354.272 450.612 353.726 450.432 353.054 450.432C352.466 450.432 351.95 450.582 351.506 450.882C351.062 451.17 350.732 451.548 350.516 452.016L349.292 451.35C349.472 450.942 349.754 450.57 350.138 450.234C350.534 449.898 350.984 449.634 351.488 449.442C351.992 449.238 352.514 449.136 353.054 449.136C353.762 449.136 354.386 449.274 354.926 449.55C355.478 449.826 355.904 450.21 356.204 450.702C356.516 451.182 356.672 451.74 356.672 452.376V459H355.322V457.074L355.52 457.272C355.352 457.632 355.088 457.962 354.728 458.262C354.38 458.55 353.966 458.784 353.486 458.964C353.018 459.132 352.502 459.216 351.938 459.216ZM359.449 459V449.352H360.799V450.936L360.619 450.702C360.847 450.246 361.189 449.886 361.645 449.622C362.113 449.358 362.677 449.226 363.337 449.226H363.949V450.576H363.103C362.407 450.576 361.849 450.792 361.429 451.224C361.009 451.656 360.799 452.268 360.799 453.06V459H359.449ZM369.887 459.216C368.987 459.216 368.177 459 367.457 458.568C366.737 458.124 366.167 457.524 365.747 456.768C365.339 456 365.135 455.136 365.135 454.176C365.135 453.204 365.339 452.34 365.747 451.584C366.167 450.828 366.731 450.234 367.439 449.802C368.159 449.358 368.975 449.136 369.887 449.136C370.715 449.136 371.453 449.316 372.101 449.676C372.749 450.036 373.259 450.522 373.631 451.134L373.415 451.512V445.374H374.765V459H373.415V456.84L373.631 457.038C373.295 457.734 372.791 458.274 372.119 458.658C371.459 459.03 370.715 459.216 369.887 459.216ZM369.959 457.866C370.607 457.866 371.189 457.704 371.705 457.38C372.233 457.056 372.647 456.618 372.947 456.066C373.259 455.502 373.415 454.872 373.415 454.176C373.415 453.48 373.259 452.856 372.947 452.304C372.647 451.74 372.233 451.296 371.705 450.972C371.189 450.648 370.607 450.486 369.959 450.486C369.323 450.486 368.747 450.648 368.231 450.972C367.715 451.296 367.307 451.734 367.007 452.286C366.719 452.838 366.575 453.468 366.575 454.176C366.575 454.872 366.719 455.502 367.007 456.066C367.307 456.618 367.709 457.056 368.213 457.38C368.729 457.704 369.311 457.866 369.959 457.866ZM380.595 462.6V449.352H381.945V451.512L381.729 451.134C382.113 450.522 382.623 450.036 383.259 449.676C383.907 449.316 384.645 449.136 385.473 449.136C386.385 449.136 387.195 449.358 387.903 449.802C388.623 450.234 389.187 450.828 389.595 451.584C390.015 452.34 390.225 453.204 390.225 454.176C390.225 455.136 390.015 456 389.595 456.768C389.187 457.524 388.623 458.124 387.903 458.568C387.195 459 386.385 459.216 385.473 459.216C384.645 459.216 383.895 459.03 383.223 458.658C382.563 458.274 382.065 457.734 381.729 457.038L381.945 456.84V462.6H380.595ZM385.401 457.866C386.049 457.866 386.625 457.704 387.129 457.38C387.645 457.056 388.047 456.618 388.335 456.066C388.635 455.502 388.785 454.872 388.785 454.176C388.785 453.468 388.635 452.838 388.335 452.286C388.047 451.734 387.645 451.296 387.129 450.972C386.625 450.648 386.049 450.486 385.401 450.486C384.753 450.486 384.165 450.648 383.637 450.972C383.121 451.296 382.707 451.74 382.395 452.304C382.095 452.856 381.945 453.48 381.945 454.176C381.945 454.872 382.095 455.502 382.395 456.066C382.707 456.618 383.121 457.056 383.637 457.38C384.165 457.704 384.753 457.866 385.401 457.866ZM395.391 459.216C394.779 459.216 394.233 459.102 393.753 458.874C393.273 458.634 392.895 458.31 392.619 457.902C392.343 457.494 392.205 457.026 392.205 456.498C392.205 455.994 392.313 455.538 392.529 455.13C392.745 454.71 393.081 454.356 393.537 454.068C393.993 453.78 394.575 453.576 395.283 453.456L399.063 452.826V454.05L395.607 454.626C394.911 454.746 394.407 454.968 394.095 455.292C393.795 455.616 393.645 456 393.645 456.444C393.645 456.876 393.813 457.242 394.149 457.542C394.497 457.842 394.941 457.992 395.481 457.992C396.141 457.992 396.717 457.854 397.209 457.578C397.701 457.29 398.085 456.906 398.361 456.426C398.637 455.946 398.775 455.412 398.775 454.824V452.376C398.775 451.8 398.565 451.332 398.145 450.972C397.725 450.612 397.179 450.432 396.507 450.432C395.919 450.432 395.403 450.582 394.959 450.882C394.515 451.17 394.185 451.548 393.969 452.016L392.745 451.35C392.925 450.942 393.207 450.57 393.591 450.234C393.987 449.898 394.437 449.634 394.941 449.442C395.445 449.238 395.967 449.136 396.507 449.136C397.215 449.136 397.839 449.274 398.379 449.55C398.931 449.826 399.357 450.21 399.657 450.702C399.969 451.182 400.125 451.74 400.125 452.376V459H398.775V457.074L398.973 457.272C398.805 457.632 398.541 457.962 398.181 458.262C397.833 458.55 397.419 458.784 396.939 458.964C396.471 459.132 395.955 459.216 395.391 459.216ZM407.474 462.96C406.814 462.96 406.202 462.858 405.638 462.654C405.086 462.45 404.606 462.168 404.198 461.808C403.802 461.46 403.496 461.052 403.28 460.584L404.522 459.918C404.714 460.374 405.056 460.77 405.548 461.106C406.04 461.442 406.67 461.61 407.438 461.61C408.026 461.61 408.566 461.496 409.058 461.268C409.55 461.04 409.946 460.704 410.246 460.26C410.546 459.816 410.696 459.27 410.696 458.622V456.48L410.912 456.678C410.576 457.374 410.078 457.914 409.418 458.298C408.758 458.67 408.038 458.856 407.258 458.856C406.358 458.856 405.548 458.64 404.828 458.208C404.108 457.776 403.538 457.194 403.118 456.462C402.71 455.718 402.506 454.896 402.506 453.996C402.506 453.084 402.71 452.262 403.118 451.53C403.538 450.798 404.102 450.216 404.81 449.784C405.53 449.352 406.346 449.136 407.258 449.136C408.038 449.136 408.746 449.316 409.382 449.676C410.03 450.036 410.54 450.522 410.912 451.134L410.696 451.512V449.352H412.046V458.622C412.046 459.45 411.848 460.188 411.452 460.836C411.068 461.496 410.528 462.012 409.832 462.384C409.148 462.768 408.362 462.96 407.474 462.96ZM407.33 457.506C407.954 457.506 408.518 457.35 409.022 457.038C409.526 456.714 409.928 456.288 410.228 455.76C410.54 455.22 410.696 454.632 410.696 453.996C410.696 453.36 410.54 452.778 410.228 452.25C409.928 451.71 409.526 451.284 409.022 450.972C408.518 450.648 407.954 450.486 407.33 450.486C406.694 450.486 406.118 450.648 405.602 450.972C405.086 451.284 404.678 451.704 404.378 452.232C404.09 452.76 403.946 453.348 403.946 453.996C403.946 454.632 404.09 455.22 404.378 455.76C404.678 456.288 405.08 456.714 405.584 457.038C406.1 457.35 406.682 457.506 407.33 457.506ZM419.212 459.216C418.312 459.216 417.496 459 416.764 458.568C416.044 458.124 415.474 457.518 415.054 456.75C414.634 455.982 414.424 455.112 414.424 454.14C414.424 453.168 414.628 452.31 415.036 451.566C415.444 450.81 415.996 450.216 416.692 449.784C417.4 449.352 418.192 449.136 419.068 449.136C419.764 449.136 420.382 449.268 420.922 449.532C421.474 449.784 421.942 450.132 422.326 450.576C422.71 451.008 423.004 451.5 423.208 452.052C423.412 452.592 423.514 453.15 423.514 453.726C423.514 453.846 423.508 453.984 423.496 454.14C423.484 454.284 423.466 454.434 423.442 454.59H415.288V453.33H422.668L422.02 453.87C422.128 453.21 422.05 452.622 421.786 452.106C421.534 451.578 421.168 451.164 420.688 450.864C420.208 450.552 419.668 450.396 419.068 450.396C418.468 450.396 417.91 450.552 417.394 450.864C416.89 451.176 416.494 451.614 416.206 452.178C415.918 452.73 415.804 453.39 415.864 454.158C415.804 454.926 415.924 455.598 416.224 456.174C416.536 456.738 416.956 457.176 417.484 457.488C418.024 457.8 418.6 457.956 419.212 457.956C419.92 457.956 420.514 457.788 420.994 457.452C421.474 457.116 421.864 456.696 422.164 456.192L423.316 456.804C423.124 457.236 422.83 457.638 422.434 458.01C422.038 458.37 421.564 458.664 421.012 458.892C420.472 459.108 419.872 459.216 419.212 459.216Z" fill="#969696"/>
<rect x="19" y="21" width="6" height="62" rx="3" fill="#45A557"/>
<path d="M45.76 48.24C44.8267 48.24 43.96 48.0667 43.16 47.72C42.36 47.36 41.68 46.8733 41.12 46.26C40.56 45.6467 40.1467 44.94 39.88 44.14L41.88 43.3C42.24 44.22 42.7667 44.9267 43.46 45.42C44.1533 45.9133 44.9533 46.16 45.86 46.16C46.3933 46.16 46.86 46.08 47.26 45.92C47.66 45.7467 47.9667 45.5067 48.18 45.2C48.4067 44.8933 48.52 44.54 48.52 44.14C48.52 43.5933 48.3667 43.16 48.06 42.84C47.7533 42.52 47.3 42.2667 46.7 42.08L43.9 41.2C42.78 40.8533 41.9267 40.3267 41.34 39.62C40.7533 38.9 40.46 38.06 40.46 37.1C40.46 36.26 40.6667 35.5267 41.08 34.9C41.4933 34.26 42.06 33.76 42.78 33.4C43.5133 33.04 44.3467 32.86 45.28 32.86C46.1733 32.86 46.9867 33.02 47.72 33.34C48.4533 33.6467 49.08 34.0733 49.6 34.62C50.1333 35.1667 50.52 35.8 50.76 36.52L48.8 37.38C48.5067 36.5933 48.0467 35.9867 47.42 35.56C46.8067 35.1333 46.0933 34.92 45.28 34.92C44.7867 34.92 44.3533 35.0067 43.98 35.18C43.6067 35.34 43.3133 35.58 43.1 35.9C42.9 36.2067 42.8 36.5667 42.8 36.98C42.8 37.46 42.9533 37.8867 43.26 38.26C43.5667 38.6333 44.0333 38.9133 44.66 39.1L47.26 39.92C48.4467 40.28 49.34 40.8 49.94 41.48C50.54 42.1467 50.84 42.98 50.84 43.98C50.84 44.8067 50.62 45.54 50.18 46.18C49.7533 46.82 49.16 47.3267 48.4 47.7C47.64 48.06 46.76 48.24 45.76 48.24ZM58.4092 48.24C57.3292 48.24 56.3692 47.9933 55.5292 47.5C54.7026 46.9933 54.0426 46.3133 53.5492 45.46C53.0692 44.6067 52.8292 43.64 52.8292 42.56C52.8292 41.4933 53.0692 40.5333 53.5492 39.68C54.0292 38.8267 54.6892 38.16 55.5292 37.68C56.3692 37.1867 57.3292 36.94 58.4092 36.94C59.1426 36.94 59.8292 37.0733 60.4692 37.34C61.1092 37.5933 61.6626 37.9467 62.1292 38.4C62.6092 38.8533 62.9626 39.38 63.1892 39.98L61.2092 40.9C60.9826 40.34 60.6159 39.8933 60.1092 39.56C59.6159 39.2133 59.0492 39.04 58.4092 39.04C57.7959 39.04 57.2426 39.1933 56.7492 39.5C56.2692 39.7933 55.8892 40.2133 55.6092 40.76C55.3292 41.2933 55.1892 41.9 55.1892 42.58C55.1892 43.26 55.3292 43.8733 55.6092 44.42C55.8892 44.9533 56.2692 45.3733 56.7492 45.68C57.2426 45.9867 57.7959 46.14 58.4092 46.14C59.0626 46.14 59.6292 45.9733 60.1092 45.64C60.6026 45.2933 60.9692 44.8333 61.2092 44.26L63.1892 45.2C62.9759 45.7733 62.6292 46.2933 62.1492 46.76C61.6826 47.2133 61.1292 47.5733 60.4892 47.84C59.8492 48.1067 59.1559 48.24 58.4092 48.24ZM68.5405 48.24C67.8071 48.24 67.1605 48.1133 66.6005 47.86C66.0538 47.5933 65.6271 47.2333 65.3205 46.78C65.0138 46.3133 64.8605 45.7667 64.8605 45.14C64.8605 44.5533 64.9871 44.0267 65.2405 43.56C65.5071 43.0933 65.9138 42.7 66.4605 42.38C67.0071 42.06 67.6938 41.8333 68.5205 41.7L72.2805 41.08V42.86L68.9605 43.44C68.3605 43.5467 67.9205 43.74 67.6405 44.02C67.3605 44.2867 67.2205 44.6333 67.2205 45.06C67.2205 45.4733 67.3738 45.8133 67.6805 46.08C68.0005 46.3333 68.4071 46.46 68.9005 46.46C69.5138 46.46 70.0471 46.3267 70.5005 46.06C70.9671 45.7933 71.3271 45.44 71.5805 45C71.8338 44.5467 71.9605 44.0467 71.9605 43.5V40.72C71.9605 40.1867 71.7605 39.7533 71.3605 39.42C70.9738 39.0733 70.4538 38.9 69.8005 38.9C69.2005 38.9 68.6738 39.06 68.2205 39.38C67.7805 39.6867 67.4538 40.0867 67.2405 40.58L65.3605 39.64C65.5605 39.1067 65.8871 38.64 66.3405 38.24C66.7938 37.8267 67.3205 37.5067 67.9205 37.28C68.5338 37.0533 69.1805 36.94 69.8605 36.94C70.7138 36.94 71.4671 37.1 72.1205 37.42C72.7871 37.74 73.3005 38.1867 73.6605 38.76C74.0338 39.32 74.2205 39.9733 74.2205 40.72V48H72.0605V46.04L72.5205 46.1C72.2671 46.54 71.9405 46.92 71.5405 47.24C71.1538 47.56 70.7071 47.8067 70.2005 47.98C69.7071 48.1533 69.1538 48.24 68.5405 48.24ZM76.863 48V37.18H79.023V39.3L78.763 39.02C79.0296 38.34 79.4563 37.8267 80.043 37.48C80.6296 37.12 81.3096 36.94 82.083 36.94C82.883 36.94 83.5896 37.1133 84.203 37.46C84.8163 37.8067 85.2963 38.2867 85.643 38.9C85.9896 39.5133 86.163 40.22 86.163 41.02V48H83.923V41.62C83.923 41.0733 83.823 40.6133 83.623 40.24C83.423 39.8533 83.1363 39.56 82.763 39.36C82.403 39.1467 81.9896 39.04 81.523 39.04C81.0563 39.04 80.6363 39.1467 80.263 39.36C79.903 39.56 79.623 39.8533 79.423 40.24C79.223 40.6267 79.123 41.0867 79.123 41.62V48H76.863ZM88.5817 48V37.18H90.7417V39.3L90.4817 39.02C90.7484 38.34 91.1751 37.8267 91.7617 37.48C92.3484 37.12 93.0284 36.94 93.8017 36.94C94.6017 36.94 95.3084 37.1133 95.9217 37.46C96.5351 37.8067 97.0151 38.2867 97.3617 38.9C97.7084 39.5133 97.8817 40.22 97.8817 41.02V48H95.6417V41.62C95.6417 41.0733 95.5417 40.6133 95.3417 40.24C95.1417 39.8533 94.8551 39.56 94.4817 39.36C94.1217 39.1467 93.7084 39.04 93.2417 39.04C92.7751 39.04 92.3551 39.1467 91.9817 39.36C91.6217 39.56 91.3417 39.8533 91.1417 40.24C90.9417 40.6267 90.8417 41.0867 90.8417 41.62V48H88.5817ZM100.3 48V37.18H102.56V48H100.3ZM100.3 35.7V33.1H102.56V35.7H100.3ZM105.203 48V37.18H107.363V39.3L107.103 39.02C107.369 38.34 107.796 37.8267 108.383 37.48C108.969 37.12 109.649 36.94 110.423 36.94C111.223 36.94 111.929 37.1133 112.543 37.46C113.156 37.8067 113.636 38.2867 113.983 38.9C114.329 39.5133 114.503 40.22 114.503 41.02V48H112.263V41.62C112.263 41.0733 112.163 40.6133 111.963 40.24C111.763 39.8533 111.476 39.56 111.103 39.36C110.743 39.1467 110.329 39.04 109.863 39.04C109.396 39.04 108.976 39.1467 108.603 39.36C108.243 39.56 107.963 39.8533 107.763 40.24C107.563 40.6267 107.463 41.0867 107.463 41.62V48H105.203ZM122.142 52.4C121.355 52.4 120.628 52.2733 119.962 52.02C119.295 51.7667 118.722 51.4133 118.242 50.96C117.762 50.52 117.402 50 117.162 49.4L119.242 48.54C119.428 49.0467 119.768 49.4667 120.262 49.8C120.768 50.1333 121.388 50.3 122.122 50.3C122.695 50.3 123.208 50.1867 123.662 49.96C124.115 49.7467 124.475 49.4267 124.742 49C125.008 48.5867 125.142 48.0867 125.142 47.5V45.06L125.542 45.52C125.168 46.2133 124.648 46.74 123.982 47.1C123.328 47.46 122.588 47.64 121.762 47.64C120.762 47.64 119.862 47.4067 119.062 46.94C118.262 46.4733 117.628 45.8333 117.162 45.02C116.708 44.2067 116.482 43.2933 116.482 42.28C116.482 41.2533 116.708 40.34 117.162 39.54C117.628 38.74 118.255 38.1067 119.042 37.64C119.828 37.1733 120.728 36.94 121.742 36.94C122.568 36.94 123.302 37.12 123.942 37.48C124.595 37.8267 125.128 38.3333 125.542 39L125.242 39.56V37.18H127.382V47.5C127.382 48.4333 127.155 49.2667 126.702 50C126.262 50.7467 125.648 51.3333 124.862 51.76C124.075 52.1867 123.168 52.4 122.142 52.4ZM122.022 45.54C122.622 45.54 123.155 45.4 123.622 45.12C124.088 44.8267 124.455 44.44 124.722 43.96C125.002 43.4667 125.142 42.9133 125.142 42.3C125.142 41.6867 125.002 41.1333 124.722 40.64C124.442 40.1467 124.068 39.76 123.602 39.48C123.135 39.1867 122.608 39.04 122.022 39.04C121.408 39.04 120.862 39.1867 120.382 39.48C119.902 39.76 119.522 40.1467 119.242 40.64C118.975 41.12 118.842 41.6733 118.842 42.3C118.842 42.9 118.975 43.4467 119.242 43.94C119.522 44.4333 119.902 44.8267 120.382 45.12C120.862 45.4 121.408 45.54 122.022 45.54Z" fill="#BFBFBF"/>
<path d="M45.3 69.216C44.352 69.216 43.518 69.018 42.798 68.622C42.078 68.226 41.52 67.686 41.124 67.002C40.728 66.306 40.53 65.514 40.53 64.626V55.59H41.97V64.626C41.97 65.274 42.108 65.844 42.384 66.336C42.672 66.816 43.062 67.194 43.554 67.47C44.058 67.734 44.64 67.866 45.3 67.866C45.96 67.866 46.536 67.734 47.028 67.47C47.532 67.194 47.922 66.816 48.198 66.336C48.486 65.844 48.63 65.274 48.63 64.626V55.59H50.07V64.626C50.07 65.514 49.872 66.306 49.476 67.002C49.08 67.686 48.522 68.226 47.802 68.622C47.094 69.018 46.26 69.216 45.3 69.216ZM56.3375 69.216C55.4135 69.216 54.6035 68.982 53.9075 68.514C53.2115 68.046 52.7075 67.41 52.3955 66.606L53.5295 66.066C53.8055 66.654 54.1895 67.122 54.6815 67.47C55.1855 67.818 55.7375 67.992 56.3375 67.992C56.9135 67.992 57.3995 67.854 57.7955 67.578C58.1915 67.29 58.3895 66.918 58.3895 66.462C58.3895 66.126 58.2935 65.862 58.1015 65.67C57.9095 65.466 57.6875 65.31 57.4355 65.202C57.1835 65.094 56.9615 65.016 56.7695 64.968L55.3835 64.572C54.4955 64.32 53.8535 63.966 53.4575 63.51C53.0615 63.054 52.8635 62.526 52.8635 61.926C52.8635 61.362 53.0075 60.87 53.2955 60.45C53.5835 60.03 53.9735 59.706 54.4655 59.478C54.9575 59.25 55.5035 59.136 56.1035 59.136C56.9195 59.136 57.6575 59.352 58.3175 59.784C58.9895 60.204 59.4635 60.792 59.7395 61.548L58.5875 62.088C58.3475 61.548 57.9995 61.128 57.5435 60.828C57.0995 60.516 56.6015 60.36 56.0495 60.36C55.5095 60.36 55.0775 60.498 54.7535 60.774C54.4295 61.05 54.2675 61.398 54.2675 61.818C54.2675 62.142 54.3515 62.4 54.5195 62.592C54.6875 62.784 54.8795 62.928 55.0955 63.024C55.3235 63.12 55.5215 63.192 55.6895 63.24L57.2915 63.708C58.0715 63.936 58.6775 64.29 59.1095 64.77C59.5535 65.25 59.7755 65.814 59.7755 66.462C59.7755 66.99 59.6255 67.464 59.3255 67.884C59.0375 68.304 58.6355 68.634 58.1195 68.874C57.6035 69.102 57.0095 69.216 56.3375 69.216ZM66.5397 69.216C65.6397 69.216 64.8237 69 64.0917 68.568C63.3717 68.124 62.8017 67.518 62.3817 66.75C61.9617 65.982 61.7517 65.112 61.7517 64.14C61.7517 63.168 61.9557 62.31 62.3637 61.566C62.7717 60.81 63.3237 60.216 64.0197 59.784C64.7277 59.352 65.5197 59.136 66.3957 59.136C67.0917 59.136 67.7097 59.268 68.2497 59.532C68.8017 59.784 69.2697 60.132 69.6537 60.576C70.0377 61.008 70.3317 61.5 70.5357 62.052C70.7397 62.592 70.8417 63.15 70.8417 63.726C70.8417 63.846 70.8357 63.984 70.8237 64.14C70.8117 64.284 70.7937 64.434 70.7697 64.59H62.6157V63.33H69.9957L69.3477 63.87C69.4557 63.21 69.3777 62.622 69.1137 62.106C68.8617 61.578 68.4957 61.164 68.0157 60.864C67.5357 60.552 66.9957 60.396 66.3957 60.396C65.7957 60.396 65.2377 60.552 64.7217 60.864C64.2177 61.176 63.8217 61.614 63.5337 62.178C63.2457 62.73 63.1317 63.39 63.1917 64.158C63.1317 64.926 63.2517 65.598 63.5517 66.174C63.8637 66.738 64.2837 67.176 64.8117 67.488C65.3517 67.8 65.9277 67.956 66.5397 67.956C67.2477 67.956 67.8417 67.788 68.3217 67.452C68.8017 67.116 69.1917 66.696 69.4917 66.192L70.6437 66.804C70.4517 67.236 70.1577 67.638 69.7617 68.01C69.3657 68.37 68.8917 68.664 68.3397 68.892C67.7997 69.108 67.1997 69.216 66.5397 69.216ZM73.2219 69V59.352H74.5719V60.936L74.3919 60.702C74.6199 60.246 74.9619 59.886 75.4179 59.622C75.8859 59.358 76.4499 59.226 77.1099 59.226H77.7219V60.576H76.8759C76.1799 60.576 75.6219 60.792 75.2019 61.224C74.7819 61.656 74.5719 62.268 74.5719 63.06V69H73.2219ZM82.5606 69V55.59H87.1686C88.0446 55.59 88.8126 55.764 89.4726 56.112C90.1326 56.448 90.6426 56.928 91.0026 57.552C91.3746 58.164 91.5606 58.878 91.5606 59.694C91.5606 60.51 91.3746 61.224 91.0026 61.836C90.6426 62.448 90.1326 62.928 89.4726 63.276C88.8246 63.612 88.0566 63.78 87.1686 63.78H84.0006V69H82.5606ZM84.0006 62.43H87.2406C87.8166 62.43 88.3206 62.322 88.7526 62.106C89.1846 61.878 89.5206 61.56 89.7606 61.152C90.0006 60.732 90.1206 60.24 90.1206 59.676C90.1206 59.112 90.0006 58.626 89.7606 58.218C89.5206 57.81 89.1846 57.498 88.7526 57.282C88.3206 57.054 87.8166 56.94 87.2406 56.94H84.0006V62.43ZM100.247 69.216C99.299 69.216 98.429 69.048 97.637 68.712C96.845 68.364 96.155 67.884 95.567 67.272C94.991 66.648 94.541 65.916 94.217 65.076C93.893 64.236 93.731 63.312 93.731 62.304C93.731 61.296 93.893 60.372 94.217 59.532C94.541 58.692 94.991 57.96 95.567 57.336C96.155 56.712 96.845 56.232 97.637 55.896C98.429 55.548 99.299 55.374 100.247 55.374C101.159 55.374 101.975 55.536 102.695 55.86C103.427 56.184 104.039 56.604 104.531 57.12C105.035 57.624 105.395 58.158 105.611 58.722L104.261 59.316C103.925 58.536 103.409 57.912 102.713 57.444C102.029 56.964 101.207 56.724 100.247 56.724C99.263 56.724 98.387 56.958 97.619 57.426C96.851 57.894 96.251 58.548 95.819 59.388C95.387 60.216 95.171 61.188 95.171 62.304C95.171 63.408 95.387 64.38 95.819 65.22C96.251 66.06 96.851 66.714 97.619 67.182C98.387 67.638 99.263 67.866 100.247 67.866C101.207 67.866 102.029 67.632 102.713 67.164C103.409 66.696 103.925 66.072 104.261 65.292L105.611 65.886C105.395 66.438 105.035 66.972 104.531 67.488C104.039 67.992 103.427 68.406 102.695 68.73C101.975 69.054 101.159 69.216 100.247 69.216Z" fill="#969696"/>
<defs>
<linearGradient id="paint0_linear_1361_73" x1="141.482" y1="119.24" x2="135.47" y2="1.07228" gradientUnits="userSpaceOnUse">
<stop stop-color="#0F0F0F"/>
<stop offset="1" stop-color="#1A1A1A"/>
</linearGradient>
<linearGradient id="paint1_linear_1361_73" x1="381.045" y1="509.98" x2="374.688" y2="386.081" gradientUnits="userSpaceOnUse">
<stop stop-color="#0F0F0F"/>
<stop offset="1" stop-color="#1A1A1A"/>
</linearGradient>
<linearGradient id="paint2_linear_1361_73" x1="135.361" y1="94.1142" x2="421.839" y2="344.783" gradientUnits="userSpaceOnUse">
<stop stop-color="#45A557" stop-opacity="0.2"/>
<stop offset="0.512376" stop-color="#45A557"/>
<stop offset="1" stop-color="#45A557" stop-opacity="0.2"/>
</linearGradient>
<linearGradient id="paint3_linear_1361_73" x1="259.5" y1="196" x2="259.5" y2="245" gradientUnits="userSpaceOnUse">
<stop stop-color="#434343"/>
<stop offset="1" stop-color="#252525"/>
</linearGradient>
<clipPath id="clip0_1361_73">
<rect width="29" height="29" fill="white" transform="translate(245 206)"/>
</clipPath>
</defs>
</svg>
