<svg width="667" height="508" viewBox="0 0 667 508" fill="none" xmlns="http://www.w3.org/2000/svg">
<g clip-path="url(#clip0_1383_269)">
<foreignObject x="22" y="35" width="623" height="358"><div xmlns="http://www.w3.org/1999/xhtml" style="backdrop-filter:blur(5px);clip-path:url(#bgblur_1_1383_269_clip_path);height:100%;width:100%"></div></foreignObject><rect data-figma-bg-blur-radius="10" x="32.5" y="45.5" width="602" height="337" rx="30.5" fill="#090909" stroke="#1A1A1A"/>
<rect x="48.75" y="62.75" width="570.5" height="302.5" rx="24.25" fill="url(#paint0_linear_1383_269)" fill-opacity="0.02" stroke="#313131" stroke-width="0.5"/>
<path d="M72.66 95V80.1H77.92C78.9067 80.1 79.7733 80.2867 80.52 80.66C81.2667 81.0333 81.8467 81.5667 82.26 82.26C82.6867 82.9533 82.9 83.7667 82.9 84.7C82.9 85.7533 82.6333 86.6467 82.1 87.38C81.5667 88.1133 80.8467 88.64 79.94 88.96L83.4 95H81.12L77.48 88.54L78.78 89.3H74.62V95H72.66ZM74.62 87.5H77.98C78.5667 87.5 79.08 87.3867 79.52 87.16C79.96 86.9333 80.3 86.6067 80.54 86.18C80.7933 85.7533 80.92 85.26 80.92 84.7C80.92 84.1267 80.7933 83.6333 80.54 83.22C80.3 82.7933 79.96 82.4667 79.52 82.24C79.08 82.0133 78.5667 81.9 77.98 81.9H74.62V87.5ZM89.7633 95.24C88.7233 95.24 87.7966 94.9933 86.9833 94.5C86.1699 94.0067 85.5299 93.3333 85.0633 92.48C84.5966 91.6133 84.3633 90.6467 84.3633 89.58C84.3633 88.5 84.5899 87.54 85.0433 86.7C85.5099 85.86 86.1366 85.2 86.9233 84.72C87.7233 84.2267 88.6166 83.98 89.6033 83.98C90.4033 83.98 91.1099 84.1267 91.7233 84.42C92.3499 84.7 92.8766 85.0867 93.3033 85.58C93.7433 86.06 94.0766 86.6133 94.3033 87.24C94.5433 87.8533 94.6633 88.4933 94.6633 89.16C94.6633 89.3067 94.6499 89.4733 94.6233 89.66C94.6099 89.8333 94.5899 90 94.5633 90.16H85.7233V88.56H93.4833L92.6033 89.28C92.7233 88.5867 92.6566 87.9667 92.4033 87.42C92.1499 86.8733 91.7766 86.44 91.2833 86.12C90.7899 85.8 90.2299 85.64 89.6033 85.64C88.9766 85.64 88.4033 85.8 87.8833 86.12C87.3633 86.44 86.9566 86.9 86.6633 87.5C86.3833 88.0867 86.2699 88.7867 86.3233 89.6C86.2699 90.3867 86.3899 91.08 86.6833 91.68C86.9899 92.2667 87.4166 92.7267 87.9633 93.06C88.5233 93.38 89.1299 93.54 89.7833 93.54C90.5033 93.54 91.1099 93.3733 91.6033 93.04C92.0966 92.7067 92.4966 92.28 92.8033 91.76L94.3633 92.56C94.1499 93.0533 93.8166 93.5067 93.3633 93.92C92.9233 94.32 92.3966 94.64 91.7833 94.88C91.1833 95.12 90.5099 95.24 89.7633 95.24ZM100.948 95.24C99.8684 95.24 98.9284 94.9733 98.1284 94.44C97.3284 93.9067 96.7618 93.1867 96.4284 92.28L97.9084 91.56C98.2151 92.2 98.6351 92.7067 99.1684 93.08C99.7018 93.4533 100.295 93.64 100.948 93.64C101.535 93.64 102.022 93.5 102.408 93.22C102.795 92.94 102.988 92.5733 102.988 92.12C102.988 91.8 102.895 91.5467 102.708 91.36C102.535 91.16 102.322 91.0067 102.068 90.9C101.815 90.78 101.582 90.6933 101.368 90.64L99.7484 90.18C98.7751 89.9 98.0618 89.5 97.6084 88.98C97.1684 88.46 96.9484 87.8533 96.9484 87.16C96.9484 86.52 97.1084 85.9667 97.4284 85.5C97.7618 85.02 98.2084 84.6467 98.7684 84.38C99.3418 84.1133 99.9818 83.98 100.688 83.98C101.635 83.98 102.482 84.22 103.228 84.7C103.988 85.18 104.528 85.8533 104.848 86.72L103.328 87.42C103.088 86.86 102.728 86.42 102.248 86.1C101.768 85.7667 101.228 85.6 100.628 85.6C100.082 85.6 99.6484 85.74 99.3284 86.02C99.0084 86.2867 98.8484 86.6267 98.8484 87.04C98.8484 87.3467 98.9284 87.6 99.0884 87.8C99.2484 87.9867 99.4418 88.1333 99.6684 88.24C99.8951 88.3333 100.115 88.4133 100.328 88.48L102.088 89C102.968 89.2533 103.648 89.6467 104.128 90.18C104.622 90.7133 104.868 91.3533 104.868 92.1C104.868 92.7 104.702 93.24 104.368 93.72C104.035 94.2 103.575 94.5733 102.988 94.84C102.402 95.1067 101.722 95.24 100.948 95.24ZM111.123 95.24C110.35 95.24 109.65 95.06 109.023 94.7C108.41 94.34 107.93 93.84 107.583 93.2C107.25 92.5467 107.083 91.8 107.083 90.96V84.22H108.943V90.76C108.943 91.2933 109.05 91.76 109.263 92.16C109.49 92.56 109.797 92.8733 110.183 93.1C110.583 93.3267 111.037 93.44 111.543 93.44C112.05 93.44 112.497 93.3267 112.883 93.1C113.283 92.8733 113.59 92.5467 113.803 92.12C114.03 91.6933 114.143 91.1867 114.143 90.6V84.22H116.023V95H114.203V92.9L114.503 93.08C114.25 93.76 113.817 94.2933 113.203 94.68C112.603 95.0533 111.91 95.24 111.123 95.24ZM118.905 95V79.86H120.765V95H118.905ZM128.031 95.12C126.978 95.12 126.164 94.82 125.591 94.22C125.031 93.62 124.751 92.7733 124.751 91.68V86H122.791V84.22H123.191C123.671 84.22 124.051 84.0733 124.331 83.78C124.611 83.4867 124.751 83.1 124.751 82.62V81.74H126.611V84.22H129.031V86H126.611V91.62C126.611 91.98 126.664 92.2933 126.771 92.56C126.891 92.8267 127.084 93.04 127.351 93.2C127.618 93.3467 127.971 93.42 128.411 93.42C128.504 93.42 128.618 93.4133 128.751 93.4C128.898 93.3867 129.031 93.3733 129.151 93.36V95C128.978 95.04 128.784 95.0667 128.571 95.08C128.358 95.1067 128.178 95.12 128.031 95.12ZM135.441 95.24C134.361 95.24 133.421 94.9733 132.621 94.44C131.821 93.9067 131.254 93.1867 130.921 92.28L132.401 91.56C132.707 92.2 133.127 92.7067 133.661 93.08C134.194 93.4533 134.787 93.64 135.441 93.64C136.027 93.64 136.514 93.5 136.901 93.22C137.287 92.94 137.481 92.5733 137.481 92.12C137.481 91.8 137.387 91.5467 137.201 91.36C137.027 91.16 136.814 91.0067 136.561 90.9C136.307 90.78 136.074 90.6933 135.861 90.64L134.241 90.18C133.267 89.9 132.554 89.5 132.101 88.98C131.661 88.46 131.441 87.8533 131.441 87.16C131.441 86.52 131.601 85.9667 131.921 85.5C132.254 85.02 132.701 84.6467 133.261 84.38C133.834 84.1133 134.474 83.98 135.181 83.98C136.127 83.98 136.974 84.22 137.721 84.7C138.481 85.18 139.021 85.8533 139.341 86.72L137.821 87.42C137.581 86.86 137.221 86.42 136.741 86.1C136.261 85.7667 135.721 85.6 135.121 85.6C134.574 85.6 134.141 85.74 133.821 86.02C133.501 86.2867 133.341 86.6267 133.341 87.04C133.341 87.3467 133.421 87.6 133.581 87.8C133.741 87.9867 133.934 88.1333 134.161 88.24C134.387 88.3333 134.607 88.4133 134.821 88.48L136.581 89C137.461 89.2533 138.141 89.6467 138.621 90.18C139.114 90.7133 139.361 91.3533 139.361 92.1C139.361 92.7 139.194 93.24 138.861 93.72C138.527 94.2 138.067 94.5733 137.481 94.84C136.894 95.1067 136.214 95.24 135.441 95.24Z" fill="#E4E4E4"/>
<path d="M169.08 97V95.64L173.2 91.18C174.013 90.3133 174.66 89.6 175.14 89.04C175.633 88.48 175.993 87.98 176.22 87.54C176.447 87.1 176.56 86.6333 176.56 86.14C176.56 85.3267 176.32 84.7 175.84 84.26C175.36 83.82 174.727 83.6 173.94 83.6C173.14 83.6 172.46 83.8333 171.9 84.3C171.34 84.7533 170.953 85.4 170.74 86.24L168.96 85.78C169.133 84.98 169.453 84.2867 169.92 83.7C170.387 83.1133 170.967 82.66 171.66 82.34C172.353 82.02 173.113 81.86 173.94 81.86C174.847 81.86 175.64 82.04 176.32 82.4C177.013 82.7467 177.553 83.2333 177.94 83.86C178.34 84.4867 178.54 85.2133 178.54 86.04C178.54 86.5867 178.427 87.12 178.2 87.64C177.973 88.16 177.64 88.7133 177.2 89.3C176.76 89.8733 176.187 90.54 175.48 91.3L171.8 95.3H178.86V97H169.08ZM185.853 97.24C185.066 97.24 184.333 97.1 183.653 96.82C182.973 96.54 182.386 96.1467 181.893 95.64C181.399 95.12 181.033 94.5067 180.793 93.8L182.453 93.12C182.733 93.8667 183.173 94.4467 183.773 94.86C184.373 95.2733 185.066 95.48 185.853 95.48C186.466 95.48 187.013 95.36 187.493 95.12C187.973 94.88 188.346 94.5333 188.613 94.08C188.893 93.6267 189.033 93.08 189.033 92.44C189.033 91.7867 188.893 91.24 188.613 90.8C188.346 90.3467 187.973 90 187.493 89.76C187.013 89.52 186.459 89.4 185.833 89.4C185.633 89.4 185.413 89.4133 185.173 89.44C184.946 89.4667 184.753 89.5067 184.593 89.56L184.173 88.66L188.153 83.8H181.553V82.1H190.373V83.74L186.573 88.42L186.453 87.9C187.346 87.9267 188.133 88.1333 188.813 88.52C189.493 88.9067 190.026 89.4333 190.413 90.1C190.799 90.7533 190.993 91.52 190.993 92.4C190.993 93.3067 190.773 94.1267 190.333 94.86C189.893 95.5933 189.286 96.1733 188.513 96.6C187.739 97.0267 186.853 97.24 185.853 97.24ZM198.48 97.24C197.48 97.24 196.593 97.04 195.82 96.64C195.06 96.24 194.46 95.7 194.02 95.02C193.593 94.3267 193.38 93.5533 193.38 92.7C193.38 91.74 193.646 90.9 194.18 90.18C194.713 89.46 195.446 88.9467 196.38 88.64L196.34 89.14C195.633 88.86 195.08 88.4133 194.68 87.8C194.293 87.1733 194.1 86.5 194.1 85.78C194.1 85.02 194.286 84.3467 194.66 83.76C195.046 83.1733 195.566 82.7133 196.22 82.38C196.886 82.0333 197.64 81.86 198.48 81.86C199.32 81.86 200.066 82.0267 200.72 82.36C201.373 82.6933 201.886 83.16 202.26 83.76C202.646 84.3467 202.84 85.02 202.84 85.78C202.84 86.54 202.633 87.22 202.22 87.82C201.82 88.42 201.286 88.8667 200.62 89.16L200.56 88.64C201.506 88.9467 202.246 89.4667 202.78 90.2C203.313 90.92 203.58 91.7533 203.58 92.7C203.58 93.5533 203.36 94.3267 202.92 95.02C202.493 95.7 201.893 96.24 201.12 96.64C200.36 97.04 199.48 97.24 198.48 97.24ZM198.48 95.54C199.106 95.54 199.653 95.42 200.12 95.18C200.586 94.94 200.946 94.6067 201.2 94.18C201.466 93.74 201.6 93.24 201.6 92.68C201.6 92.1067 201.466 91.6067 201.2 91.18C200.946 90.74 200.586 90.4067 200.12 90.18C199.653 89.94 199.106 89.82 198.48 89.82C197.853 89.82 197.3 89.94 196.82 90.18C196.353 90.4067 195.993 90.74 195.74 91.18C195.486 91.6067 195.36 92.1067 195.36 92.68C195.36 93.24 195.486 93.74 195.74 94.18C195.993 94.6067 196.353 94.94 196.82 95.18C197.3 95.42 197.853 95.54 198.48 95.54ZM198.48 88.12C198.933 88.12 199.333 88.02 199.68 87.82C200.04 87.62 200.326 87.3533 200.54 87.02C200.753 86.6733 200.86 86.2733 200.86 85.82C200.86 85.3667 200.753 84.9733 200.54 84.64C200.326 84.3067 200.04 84.0467 199.68 83.86C199.333 83.66 198.933 83.56 198.48 83.56C198.013 83.56 197.6 83.66 197.24 83.86C196.88 84.0467 196.593 84.3067 196.38 84.64C196.166 84.9733 196.06 85.3667 196.06 85.82C196.06 86.2733 196.166 86.6733 196.38 87.02C196.593 87.3533 196.88 87.62 197.24 87.82C197.6 88.02 198.013 88.12 198.48 88.12ZM206.418 97V82.1H215.858V83.9H208.378V88.72H215.158V90.52H208.378V97H206.418ZM223.198 97.24C222.251 97.24 221.385 97.0667 220.598 96.72C219.811 96.36 219.145 95.8733 218.598 95.26C218.051 94.6467 217.658 93.96 217.418 93.2L219.118 92.5C219.478 93.46 220.011 94.2 220.718 94.72C221.438 95.2267 222.278 95.48 223.238 95.48C223.825 95.48 224.338 95.3867 224.778 95.2C225.218 95.0133 225.558 94.7533 225.798 94.42C226.051 94.0733 226.178 93.6733 226.178 93.22C226.178 92.5933 225.998 92.1 225.638 91.74C225.291 91.3667 224.778 91.0867 224.098 90.9L221.358 90.06C220.278 89.7267 219.451 89.2 218.878 88.48C218.305 87.76 218.018 86.9333 218.018 86C218.018 85.1867 218.211 84.4733 218.598 83.86C218.998 83.2333 219.545 82.7467 220.238 82.4C220.945 82.04 221.745 81.86 222.638 81.86C223.531 81.86 224.338 82.02 225.058 82.34C225.791 82.66 226.411 83.0933 226.918 83.64C227.425 84.1733 227.798 84.7867 228.038 85.48L226.358 86.18C226.038 85.34 225.558 84.7067 224.918 84.28C224.278 83.84 223.525 83.62 222.658 83.62C222.125 83.62 221.651 83.7133 221.238 83.9C220.838 84.0733 220.525 84.3333 220.298 84.68C220.085 85.0133 219.978 85.4133 219.978 85.88C219.978 86.4267 220.151 86.9133 220.498 87.34C220.845 87.7667 221.371 88.0933 222.078 88.32L224.578 89.06C225.751 89.42 226.638 89.9333 227.238 90.6C227.838 91.2667 228.138 92.0933 228.138 93.08C228.138 93.8933 227.925 94.6133 227.498 95.24C227.085 95.8667 226.505 96.36 225.758 96.72C225.025 97.0667 224.171 97.24 223.198 97.24ZM235.368 97.24C234.408 97.24 233.554 97.0267 232.808 96.6C232.074 96.1733 231.494 95.5933 231.068 94.86C230.641 94.1133 230.428 93.2667 230.428 92.32C230.428 91.8 230.488 91.2867 230.608 90.78C230.728 90.2733 230.921 89.76 231.188 89.24C231.454 88.72 231.794 88.18 232.208 87.62L236.408 82.1H238.768L233.628 88.78L233.268 88.74C233.468 88.4733 233.688 88.2667 233.928 88.12C234.181 87.9733 234.448 87.8667 234.728 87.8C235.021 87.7333 235.328 87.7 235.648 87.7C236.528 87.7 237.314 87.9067 238.008 88.32C238.714 88.72 239.268 89.2733 239.668 89.98C240.081 90.6867 240.288 91.5 240.288 92.42C240.288 93.34 240.074 94.1667 239.648 94.9C239.221 95.62 238.634 96.1933 237.888 96.62C237.154 97.0333 236.314 97.24 235.368 97.24ZM235.368 95.48C235.928 95.48 236.428 95.3533 236.868 95.1C237.308 94.8333 237.654 94.4667 237.908 94C238.174 93.5333 238.308 93.0133 238.308 92.44C238.308 91.84 238.181 91.32 237.928 90.88C237.674 90.4267 237.328 90.0667 236.888 89.8C236.448 89.5333 235.941 89.4 235.368 89.4C234.808 89.4 234.301 89.5333 233.848 89.8C233.394 90.0667 233.041 90.4267 232.788 90.88C232.534 91.32 232.408 91.84 232.408 92.44C232.408 93.0133 232.534 93.5333 232.788 94C233.054 94.4667 233.408 94.8333 233.848 95.1C234.301 95.3533 234.808 95.48 235.368 95.48ZM249.5 97V93.56H242.18V91.94L249.46 82.1H251.34V91.94H253.28V93.56H251.34V97H249.5ZM243.66 92.64L243.38 91.94H249.5V83.74L250.08 83.9L243.66 92.64Z" fill="#ACACAC"/>
<g clip-path="url(#clip2_1383_269)">
<path d="M579.5 77.375C578.572 77.375 577.812 78.1344 577.812 79.0625C577.812 79.9906 578.572 80.75 579.5 80.75C580.428 80.75 581.188 79.9906 581.188 79.0625C581.188 78.1344 580.428 77.375 579.5 77.375ZM579.5 94.25C578.572 94.25 577.812 95.0094 577.812 95.9375C577.812 96.8656 578.572 97.625 579.5 97.625C580.428 97.625 581.188 96.8656 581.188 95.9375C581.188 95.0094 580.428 94.25 579.5 94.25ZM579.5 85.8125C578.572 85.8125 577.812 86.5719 577.812 87.5C577.812 88.4281 578.572 89.1875 579.5 89.1875C580.428 89.1875 581.188 88.4281 581.188 87.5C581.188 86.5719 580.428 85.8125 579.5 85.8125Z" fill="#616161"/>
</g>
<foreignObject x="65" y="108" width="537" height="95"><div xmlns="http://www.w3.org/1999/xhtml" style="backdrop-filter:blur(5px);clip-path:url(#bgblur_3_1383_269_clip_path);height:100%;width:100%"></div></foreignObject><rect data-figma-bg-blur-radius="10" x="75.5" y="118.5" width="516" height="74" rx="14.5" fill="#D9D9D9" fill-opacity="0.02" stroke="#1F1F1F"/>
<foreignObject x="68" y="194" width="177" height="151"><div xmlns="http://www.w3.org/1999/xhtml" style="backdrop-filter:blur(5px);clip-path:url(#bgblur_4_1383_269_clip_path);height:100%;width:100%"></div></foreignObject><rect data-figma-bg-blur-radius="10" x="78.5" y="204.5" width="156" height="130" rx="14.5" fill="#D9D9D9" fill-opacity="0.02" stroke="#1F1F1F"/>
<foreignObject x="236" y="194" width="367" height="151"><div xmlns="http://www.w3.org/1999/xhtml" style="backdrop-filter:blur(5px);clip-path:url(#bgblur_5_1383_269_clip_path);height:100%;width:100%"></div></foreignObject><rect data-figma-bg-blur-radius="10" x="246.5" y="204.5" width="346" height="130" rx="14.5" fill="#D9D9D9" fill-opacity="0.02" stroke="#1F1F1F"/>
<mask id="path-9-outside-1_1383_269" maskUnits="userSpaceOnUse" x="276" y="140" width="117" height="31" fill="black">
<rect fill="white" x="276" y="140" width="117" height="31"/>
<path d="M277 145C277 142.791 278.791 141 281 141H391V170H281C278.791 170 277 168.209 277 166V145Z"/>
</mask>
<path d="M277 145C277 142.791 278.791 141 281 141H391V170H281C278.791 170 277 168.209 277 166V145Z" fill="#DA4040" fill-opacity="0.23"/>
<path d="M276 145C276 142.239 278.239 140 281 140H393L389 142H281C279.343 142 278 143.343 278 145H276ZM393 171H281C278.239 171 276 168.761 276 166H278C278 167.657 279.343 169 281 169H389L393 171ZM281 171C278.239 171 276 168.761 276 166V145C276 142.239 278.239 140 281 140V142C279.343 142 278 143.343 278 145V166C278 167.657 279.343 169 281 169V171ZM393 140V171L389 169V142L393 140Z" fill="#DA4040" mask="url(#path-9-outside-1_1383_269)"/>
<path d="M288.65 165.3C287.333 165.3 286.117 165.067 285 164.6C283.9 164.117 282.933 163.442 282.1 162.575C281.283 161.708 280.65 160.692 280.2 159.525C279.75 158.358 279.525 157.083 279.525 155.7C279.525 154.3 279.75 153.017 280.2 151.85C280.65 150.683 281.283 149.667 282.1 148.8C282.917 147.933 283.883 147.267 285 146.8C286.117 146.317 287.333 146.075 288.65 146.075C289.933 146.075 291.083 146.3 292.1 146.75C293.133 147.2 294 147.783 294.7 148.5C295.417 149.217 295.925 149.983 296.225 150.8L293.975 151.825C293.542 150.792 292.867 149.958 291.95 149.325C291.033 148.675 289.933 148.35 288.65 148.35C287.35 148.35 286.192 148.658 285.175 149.275C284.175 149.892 283.392 150.75 282.825 151.85C282.258 152.95 281.975 154.233 281.975 155.7C281.975 157.15 282.258 158.425 282.825 159.525C283.392 160.625 284.175 161.483 285.175 162.1C286.192 162.717 287.35 163.025 288.65 163.025C289.933 163.025 291.033 162.708 291.95 162.075C292.867 161.425 293.542 160.583 293.975 159.55L296.225 160.575C295.925 161.392 295.417 162.158 294.7 162.875C294 163.592 293.133 164.175 292.1 164.625C291.083 165.075 289.933 165.3 288.65 165.3ZM299.282 165V146.075H301.607V154.15L301.182 153.925C301.516 153.075 302.049 152.417 302.782 151.95C303.532 151.467 304.407 151.225 305.407 151.225C306.374 151.225 307.232 151.442 307.982 151.875C308.749 152.308 309.349 152.908 309.782 153.675C310.232 154.442 310.457 155.308 310.457 156.275V165H308.107V157.025C308.107 156.275 307.966 155.642 307.682 155.125C307.416 154.608 307.041 154.208 306.557 153.925C306.074 153.625 305.516 153.475 304.882 153.475C304.266 153.475 303.707 153.625 303.207 153.925C302.707 154.208 302.316 154.617 302.032 155.15C301.749 155.667 301.607 156.292 301.607 157.025V165H299.282ZM319.984 165.3C318.684 165.3 317.526 164.992 316.509 164.375C315.493 163.758 314.693 162.917 314.109 161.85C313.526 160.767 313.234 159.558 313.234 158.225C313.234 156.875 313.518 155.675 314.084 154.625C314.668 153.575 315.451 152.75 316.434 152.15C317.434 151.533 318.551 151.225 319.784 151.225C320.784 151.225 321.668 151.408 322.434 151.775C323.218 152.125 323.876 152.608 324.409 153.225C324.959 153.825 325.376 154.517 325.659 155.3C325.959 156.067 326.109 156.867 326.109 157.7C326.109 157.883 326.093 158.092 326.059 158.325C326.043 158.542 326.018 158.75 325.984 158.95H314.934V156.95H324.634L323.534 157.85C323.684 156.983 323.601 156.208 323.284 155.525C322.968 154.842 322.501 154.3 321.884 153.9C321.268 153.5 320.568 153.3 319.784 153.3C319.001 153.3 318.284 153.5 317.634 153.9C316.984 154.3 316.476 154.875 316.109 155.625C315.759 156.358 315.618 157.233 315.684 158.25C315.618 159.233 315.768 160.1 316.134 160.85C316.518 161.583 317.051 162.158 317.734 162.575C318.434 162.975 319.193 163.175 320.009 163.175C320.909 163.175 321.668 162.967 322.284 162.55C322.901 162.133 323.401 161.6 323.784 160.95L325.734 161.95C325.468 162.567 325.051 163.133 324.484 163.65C323.934 164.15 323.276 164.55 322.509 164.85C321.759 165.15 320.918 165.3 319.984 165.3ZM332.92 165.3C332.037 165.3 331.253 165.142 330.57 164.825C329.903 164.492 329.378 164.042 328.995 163.475C328.612 162.892 328.42 162.225 328.42 161.475C328.42 160.758 328.57 160.117 328.87 159.55C329.187 158.967 329.67 158.475 330.32 158.075C330.987 157.675 331.82 157.392 332.82 157.225L337.82 156.4V158.35L333.345 159.1C332.478 159.25 331.845 159.525 331.445 159.925C331.062 160.325 330.87 160.817 330.87 161.4C330.87 161.95 331.087 162.408 331.52 162.775C331.97 163.142 332.528 163.325 333.195 163.325C334.045 163.325 334.778 163.15 335.395 162.8C336.028 162.433 336.52 161.942 336.87 161.325C337.237 160.708 337.42 160.025 337.42 159.275V155.85C337.42 155.117 337.145 154.525 336.595 154.075C336.062 153.608 335.353 153.375 334.47 153.375C333.703 153.375 333.02 153.575 332.42 153.975C331.837 154.358 331.403 154.875 331.12 155.525L329.095 154.475C329.345 153.858 329.745 153.308 330.295 152.825C330.845 152.325 331.487 151.933 332.22 151.65C332.953 151.367 333.72 151.225 334.52 151.225C335.553 151.225 336.462 151.425 337.245 151.825C338.028 152.208 338.637 152.75 339.07 153.45C339.52 154.133 339.745 154.933 339.745 155.85V165H337.47V162.45L337.895 162.6C337.612 163.133 337.228 163.6 336.745 164C336.262 164.4 335.695 164.717 335.045 164.95C334.395 165.183 333.687 165.3 332.92 165.3ZM348.581 165.15C347.264 165.15 346.247 164.775 345.531 164.025C344.831 163.275 344.481 162.217 344.481 160.85V153.75H342.031V151.525H342.531C343.131 151.525 343.606 151.342 343.956 150.975C344.306 150.608 344.481 150.125 344.481 149.525V148.425H346.806V151.525H349.831V153.75H346.806V160.775C346.806 161.225 346.872 161.617 347.006 161.95C347.156 162.283 347.397 162.55 347.731 162.75C348.064 162.933 348.506 163.025 349.056 163.025C349.172 163.025 349.314 163.017 349.481 163C349.664 162.983 349.831 162.967 349.981 162.95V165C349.764 165.05 349.522 165.083 349.256 165.1C348.989 165.133 348.764 165.15 348.581 165.15ZM353.018 165V151.525H355.343V165H353.018ZM353.018 149.375V146.375H355.343V149.375H353.018ZM358.95 165V151.525H361.225V154.15L360.85 153.925C361.184 153.075 361.717 152.417 362.45 151.95C363.2 151.467 364.075 151.225 365.075 151.225C366.042 151.225 366.9 151.442 367.65 151.875C368.417 152.308 369.017 152.908 369.45 153.675C369.9 154.442 370.125 155.308 370.125 156.275V165H367.775V157.025C367.775 156.275 367.642 155.642 367.375 155.125C367.109 154.608 366.725 154.208 366.225 153.925C365.742 153.625 365.184 153.475 364.55 153.475C363.917 153.475 363.35 153.625 362.85 153.925C362.367 154.208 361.984 154.617 361.7 155.15C361.417 155.667 361.275 156.292 361.275 157.025V165H358.95ZM379.877 170.5C378.927 170.5 378.044 170.35 377.227 170.05C376.427 169.75 375.736 169.333 375.152 168.8C374.586 168.283 374.152 167.675 373.852 166.975L376.027 165.975C376.261 166.608 376.702 167.142 377.352 167.575C378.019 168.025 378.852 168.25 379.852 168.25C380.619 168.25 381.311 168.1 381.927 167.8C382.561 167.517 383.061 167.083 383.427 166.5C383.794 165.933 383.977 165.242 383.977 164.425V161.4L384.402 161.85C383.936 162.767 383.261 163.467 382.377 163.95C381.511 164.433 380.552 164.675 379.502 164.675C378.236 164.675 377.102 164.383 376.102 163.8C375.102 163.2 374.319 162.392 373.752 161.375C373.186 160.342 372.902 159.2 372.902 157.95C372.902 156.683 373.186 155.542 373.752 154.525C374.319 153.508 375.094 152.708 376.077 152.125C377.077 151.525 378.211 151.225 379.477 151.225C380.527 151.225 381.477 151.467 382.327 151.95C383.194 152.417 383.886 153.067 384.402 153.9L384.052 154.525V151.525H386.327V164.425C386.327 165.592 386.052 166.633 385.502 167.55C384.952 168.467 384.186 169.183 383.202 169.7C382.236 170.233 381.127 170.5 379.877 170.5ZM379.702 162.425C380.502 162.425 381.219 162.225 381.852 161.825C382.502 161.425 383.019 160.892 383.402 160.225C383.786 159.542 383.977 158.783 383.977 157.95C383.977 157.133 383.786 156.383 383.402 155.7C383.019 155.017 382.502 154.475 381.852 154.075C381.219 153.675 380.502 153.475 379.702 153.475C378.886 153.475 378.144 153.675 377.477 154.075C376.811 154.475 376.286 155.017 375.902 155.7C375.536 156.367 375.352 157.117 375.352 157.95C375.352 158.783 375.536 159.542 375.902 160.225C376.286 160.892 376.802 161.425 377.452 161.825C378.119 162.225 378.869 162.425 379.702 162.425Z" fill="white"/>
<path d="M391 125C391 122.791 392.791 121 395 121H461C463.209 121 465 122.791 465 125V139C465 141.209 463.209 143 461 143H391V125Z" fill="#DA4040"/>
<path d="M394.245 137V125.825H397.905C399.035 125.825 400.02 126.055 400.86 126.515C401.7 126.975 402.35 127.625 402.81 128.465C403.27 129.295 403.5 130.275 403.5 131.405C403.5 132.525 403.27 133.505 402.81 134.345C402.35 135.185 401.7 135.84 400.86 136.31C400.02 136.77 399.035 137 397.905 137H394.245ZM395.715 135.65H397.92C398.75 135.65 399.465 135.475 400.065 135.125C400.675 134.775 401.145 134.285 401.475 133.655C401.805 133.015 401.97 132.265 401.97 131.405C401.97 130.535 401.8 129.785 401.46 129.155C401.13 128.525 400.66 128.04 400.05 127.7C399.45 127.35 398.74 127.175 397.92 127.175H395.715V135.65ZM408.918 137.18C408.138 137.18 407.443 136.995 406.833 136.625C406.223 136.255 405.743 135.75 405.393 135.11C405.043 134.46 404.868 133.735 404.868 132.935C404.868 132.125 405.038 131.405 405.378 130.775C405.728 130.145 406.198 129.65 406.788 129.29C407.388 128.92 408.058 128.735 408.798 128.735C409.398 128.735 409.928 128.845 410.388 129.065C410.858 129.275 411.253 129.565 411.573 129.935C411.903 130.295 412.153 130.71 412.323 131.18C412.503 131.64 412.593 132.12 412.593 132.62C412.593 132.73 412.583 132.855 412.563 132.995C412.553 133.125 412.538 133.25 412.518 133.37H405.888V132.17H411.708L411.048 132.71C411.138 132.19 411.088 131.725 410.898 131.315C410.708 130.905 410.428 130.58 410.058 130.34C409.688 130.1 409.268 129.98 408.798 129.98C408.328 129.98 407.898 130.1 407.508 130.34C407.118 130.58 406.813 130.925 406.593 131.375C406.383 131.815 406.298 132.34 406.338 132.95C406.298 133.54 406.388 134.06 406.608 134.51C406.838 134.95 407.158 135.295 407.568 135.545C407.988 135.785 408.443 135.905 408.933 135.905C409.473 135.905 409.928 135.78 410.298 135.53C410.668 135.28 410.968 134.96 411.198 134.57L412.368 135.17C412.208 135.54 411.958 135.88 411.618 136.19C411.288 136.49 410.893 136.73 410.433 136.91C409.983 137.09 409.478 137.18 408.918 137.18ZM417.697 137.09C416.907 137.09 416.297 136.865 415.867 136.415C415.447 135.965 415.237 135.33 415.237 134.51V130.25H413.767V128.915H414.067C414.427 128.915 414.712 128.805 414.922 128.585C415.132 128.365 415.237 128.075 415.237 127.715V127.055H416.632V128.915H418.447V130.25H416.632V134.465C416.632 134.735 416.672 134.97 416.752 135.17C416.842 135.37 416.987 135.53 417.187 135.65C417.387 135.76 417.652 135.815 417.982 135.815C418.052 135.815 418.137 135.81 418.237 135.8C418.347 135.79 418.447 135.78 418.537 135.77V137C418.407 137.03 418.262 137.05 418.102 137.06C417.942 137.08 417.807 137.09 417.697 137.09ZM423.86 137.18C423.08 137.18 422.385 136.995 421.775 136.625C421.165 136.255 420.685 135.75 420.335 135.11C419.985 134.46 419.81 133.735 419.81 132.935C419.81 132.125 419.98 131.405 420.32 130.775C420.67 130.145 421.14 129.65 421.73 129.29C422.33 128.92 423 128.735 423.74 128.735C424.34 128.735 424.87 128.845 425.33 129.065C425.8 129.275 426.195 129.565 426.515 129.935C426.845 130.295 427.095 130.71 427.265 131.18C427.445 131.64 427.535 132.12 427.535 132.62C427.535 132.73 427.525 132.855 427.505 132.995C427.495 133.125 427.48 133.25 427.46 133.37H420.83V132.17H426.65L425.99 132.71C426.08 132.19 426.03 131.725 425.84 131.315C425.65 130.905 425.37 130.58 425 130.34C424.63 130.1 424.21 129.98 423.74 129.98C423.27 129.98 422.84 130.1 422.45 130.34C422.06 130.58 421.755 130.925 421.535 131.375C421.325 131.815 421.24 132.34 421.28 132.95C421.24 133.54 421.33 134.06 421.55 134.51C421.78 134.95 422.1 135.295 422.51 135.545C422.93 135.785 423.385 135.905 423.875 135.905C424.415 135.905 424.87 135.78 425.24 135.53C425.61 135.28 425.91 134.96 426.14 134.57L427.31 135.17C427.15 135.54 426.9 135.88 426.56 136.19C426.23 136.49 425.835 136.73 425.375 136.91C424.925 137.09 424.42 137.18 423.86 137.18ZM433.103 137.18C432.313 137.18 431.608 136.995 430.988 136.625C430.378 136.255 429.898 135.75 429.548 135.11C429.198 134.47 429.023 133.75 429.023 132.95C429.023 132.14 429.198 131.42 429.548 130.79C429.898 130.16 430.378 129.66 430.988 129.29C431.608 128.92 432.313 128.735 433.103 128.735C433.633 128.735 434.128 128.83 434.588 129.02C435.048 129.21 435.453 129.465 435.803 129.785C436.153 130.105 436.408 130.48 436.568 130.91L435.323 131.51C435.133 131.09 434.843 130.75 434.453 130.49C434.063 130.22 433.613 130.085 433.103 130.085C432.613 130.085 432.168 130.21 431.768 130.46C431.378 130.71 431.068 131.05 430.838 131.48C430.608 131.91 430.493 132.405 430.493 132.965C430.493 133.505 430.608 133.995 430.838 134.435C431.068 134.865 431.378 135.205 431.768 135.455C432.168 135.705 432.613 135.83 433.103 135.83C433.613 135.83 434.063 135.7 434.453 135.44C434.843 135.17 435.133 134.815 435.323 134.375L436.568 135.005C436.408 135.425 436.153 135.8 435.803 136.13C435.453 136.45 435.048 136.705 434.588 136.895C434.128 137.085 433.633 137.18 433.103 137.18ZM441.677 137.09C440.887 137.09 440.277 136.865 439.847 136.415C439.427 135.965 439.217 135.33 439.217 134.51V130.25H437.747V128.915H438.047C438.407 128.915 438.692 128.805 438.902 128.585C439.112 128.365 439.217 128.075 439.217 127.715V127.055H440.612V128.915H442.427V130.25H440.612V134.465C440.612 134.735 440.652 134.97 440.732 135.17C440.822 135.37 440.967 135.53 441.167 135.65C441.367 135.76 441.632 135.815 441.962 135.815C442.032 135.815 442.117 135.81 442.217 135.8C442.327 135.79 442.427 135.78 442.517 135.77V137C442.387 137.03 442.242 137.05 442.082 137.06C441.922 137.08 441.787 137.09 441.677 137.09ZM447.839 137.18C447.059 137.18 446.364 136.995 445.754 136.625C445.144 136.255 444.664 135.75 444.314 135.11C443.964 134.46 443.789 133.735 443.789 132.935C443.789 132.125 443.959 131.405 444.299 130.775C444.649 130.145 445.119 129.65 445.709 129.29C446.309 128.92 446.979 128.735 447.719 128.735C448.319 128.735 448.849 128.845 449.309 129.065C449.779 129.275 450.174 129.565 450.494 129.935C450.824 130.295 451.074 130.71 451.244 131.18C451.424 131.64 451.514 132.12 451.514 132.62C451.514 132.73 451.504 132.855 451.484 132.995C451.474 133.125 451.459 133.25 451.439 133.37H444.809V132.17H450.629L449.969 132.71C450.059 132.19 450.009 131.725 449.819 131.315C449.629 130.905 449.349 130.58 448.979 130.34C448.609 130.1 448.189 129.98 447.719 129.98C447.249 129.98 446.819 130.1 446.429 130.34C446.039 130.58 445.734 130.925 445.514 131.375C445.304 131.815 445.219 132.34 445.259 132.95C445.219 133.54 445.309 134.06 445.529 134.51C445.759 134.95 446.079 135.295 446.489 135.545C446.909 135.785 447.364 135.905 447.854 135.905C448.394 135.905 448.849 135.78 449.219 135.53C449.589 135.28 449.889 134.96 450.119 134.57L451.289 135.17C451.129 135.54 450.879 135.88 450.539 136.19C450.209 136.49 449.814 136.73 449.354 136.91C448.904 137.09 448.399 137.18 447.839 137.18ZM457.008 137.18C456.248 137.18 455.563 136.995 454.953 136.625C454.353 136.255 453.878 135.75 453.528 135.11C453.178 134.47 453.003 133.755 453.003 132.965C453.003 132.155 453.178 131.435 453.528 130.805C453.878 130.165 454.353 129.66 454.953 129.29C455.563 128.92 456.248 128.735 457.008 128.735C457.678 128.735 458.273 128.88 458.793 129.17C459.313 129.45 459.723 129.83 460.023 130.31L459.798 130.655V125.645H461.208V137H459.843V135.275L460.023 135.515C459.743 136.045 459.333 136.455 458.793 136.745C458.263 137.035 457.668 137.18 457.008 137.18ZM457.128 135.83C457.638 135.83 458.093 135.705 458.493 135.455C458.893 135.205 459.208 134.865 459.438 134.435C459.678 133.995 459.798 133.505 459.798 132.965C459.798 132.415 459.678 131.925 459.438 131.495C459.208 131.055 458.893 130.71 458.493 130.46C458.093 130.21 457.638 130.085 457.128 130.085C456.628 130.085 456.173 130.215 455.763 130.475C455.363 130.725 455.048 131.065 454.818 131.495C454.588 131.915 454.473 132.405 454.473 132.965C454.473 133.505 454.588 133.995 454.818 134.435C455.048 134.865 455.363 135.205 455.763 135.455C456.163 135.705 456.618 135.83 457.128 135.83Z" fill="#220000"/>
<path d="M153.711 96.2929C154.101 96.6834 154.734 96.6834 155.125 96.2929L160.012 91.4006C160.793 90.6195 160.792 89.3537 160.012 88.5729L155.121 83.6825C154.731 83.292 154.097 83.292 153.707 83.6825C153.316 84.0731 153.316 84.7062 153.707 85.0968L157.893 89.2824C158.283 89.6729 158.283 90.3061 157.893 90.6966L153.711 94.8787C153.32 95.2692 153.32 95.9023 153.711 96.2929Z" fill="#707070"/>
<rect x="90" y="219" width="14" height="13" rx="6.5" fill="#565656"/>
<rect x="114" y="219" width="106" height="13" rx="6.5" fill="#2A2A2A"/>
<rect x="261" y="219" width="14" height="13" rx="6.5" fill="#565656"/>
<rect x="285" y="219" width="106" height="13" rx="6.5" fill="#2A2A2A"/>
<g filter="url(#filter4_f_1383_269)">
<path d="M788.681 56.476C788.681 156.547 827.907 695.311 643.23 695.311C75.9199 772.625 -163 501.679 -163 401.608C-72.2854 442.336 581.93 195.145 677.218 56.476C861.896 56.476 788.681 -43.595 788.681 56.476Z" fill="#050403"/>
</g>
<path d="M556.12 79.0455C558.089 77.0766 561.281 77.0766 563.25 79.0455C565.219 81.0144 565.219 84.2066 563.25 86.1755L560.009 89.4164C558.04 91.3853 554.848 91.3853 552.879 89.4164C552.697 89.2342 552.532 89.0416 552.383 88.8403C552.161 88.5397 552.223 88.1276 552.488 87.8635C552.921 87.4298 553.686 87.6015 554.106 88.0483C554.129 88.0725 554.152 88.0964 554.176 88.12C555.428 89.373 557.46 89.373 558.713 88.12L561.954 84.8792C563.207 83.6262 563.207 81.5948 561.954 80.3419C560.701 79.089 558.669 79.089 557.416 80.3419L556.444 81.3142C556.086 81.6721 555.506 81.6721 555.148 81.3142C554.79 80.9562 554.79 80.3758 555.148 80.0178L556.12 79.0455Z" fill="#616161"/>
<path d="M550.286 84.879C552.16 83.0053 555.207 82.9674 557.154 84.6373C557.504 84.9381 557.476 85.4678 557.149 85.7945C556.765 86.1786 556.129 86.1202 555.68 85.8146C554.448 84.9767 552.695 85.0627 551.583 86.1753L548.342 89.4162C547.089 90.6692 547.089 92.7006 548.342 93.9535C549.595 95.2064 551.626 95.2064 552.879 93.9535L553.851 92.9812C554.209 92.6233 554.79 92.6233 555.148 92.9812C555.506 93.3393 555.506 93.9196 555.148 94.2777L554.176 95.2499C552.207 97.2188 549.014 97.2188 547.046 95.2499C545.077 93.281 545.077 90.0888 547.046 88.1199L550.286 84.879Z" fill="#616161"/>
</g>
<defs>
<clipPath id="bgblur_1_1383_269_clip_path" transform="translate(-22 -35)"><rect x="32.5" y="45.5" width="602" height="337" rx="30.5"/>
</clipPath><clipPath id="bgblur_3_1383_269_clip_path" transform="translate(-65 -108)"><rect x="75.5" y="118.5" width="516" height="74" rx="14.5"/>
</clipPath><clipPath id="bgblur_4_1383_269_clip_path" transform="translate(-68 -194)"><rect x="78.5" y="204.5" width="156" height="130" rx="14.5"/>
</clipPath><clipPath id="bgblur_5_1383_269_clip_path" transform="translate(-236 -194)"><rect x="246.5" y="204.5" width="346" height="130" rx="14.5"/>
</clipPath><filter id="filter4_f_1383_269" x="-263" y="-88" width="1166" height="897" filterUnits="userSpaceOnUse" color-interpolation-filters="sRGB">
<feFlood flood-opacity="0" result="BackgroundImageFix"/>
<feBlend mode="normal" in="SourceGraphic" in2="BackgroundImageFix" result="shape"/>
<feGaussianBlur stdDeviation="50" result="effect1_foregroundBlur_1383_269"/>
</filter>
<linearGradient id="paint0_linear_1383_269" x1="57.8716" y1="71.2967" x2="618.437" y2="355.601" gradientUnits="userSpaceOnUse">
<stop stop-color="white"/>
</linearGradient>
<clipPath id="clip0_1383_269">
<rect width="667" height="508" fill="white"/>
</clipPath>
<clipPath id="clip2_1383_269">
<rect width="27" height="27" fill="white" transform="translate(566 74)"/>
</clipPath>
</defs>
</svg>
